<svg id="hurricane" xmlns="http://www.w3.org/2000/svg" viewBox="0 0 207 216.51">
  <title>hurricane-tornado</title>
  <g>
    <polygon points="38.35 21.51 93.91 19.19 93.88 19.32 101.5 19.32 101.42 18.88 102 18.86 101.41 18.83 97.69 0.06 94.04 18.52 41.04 16.32 37.81 0 34 19.26 38.35 19.26 38.35 21.51"/>
    <path d="M95.33,106,93,121.42h4.55v3.09l58-3.17,0,.18h8l-.09-.61.61,0-.62,0-2.47-16.42,3.57-.08-.06.18H182.8l-.21-.61,1.41,0-1.43,0-6-17.34,6.49-.17-.06.18h16.92l-.19-.61,1.3,0-1.32,0-8.25-25.75-8.11,25.33-7.23-.19-2.48-7.14-2.44,7L65.63,82.39l-1.76-5.51,95.75-2.55-.05.18h16.36l-.19-.61,1.26,0-1.28,0-8-25.75-7.84,25.33-98-2.61L58.46,60l-3.4,10.62-8.95-.24-5.25-17h5.42v3.09l80.06-3.17,0,.18h11l-.13-.61.84,0-.86,0-5.35-25.75-5.26,25.33-76.38-3L45.49,27,40.35,51.76,39.18,48,31,74.42h9.35v3.09L53,77.17l-3,9.25h9.67v3.09l111-2.86-5.83,16.76-4.06-.1-1.24-8.23-1.23,8.17L98,101.83,97,95l-1,6.78-59-1.4L29.19,78,20,104.42H30.5v3.09Zm62.76-1.49-2.4,15.93-55.34-3-1.73-11.49Z" transform="translate(-20 -19)"/>
    <path d="M226.34,209.33l-4.15-22.26L218.1,209l-7.6-.34-1-10.56-1,10.47-33.31-1.47-.89-9.07-.88,9-14.49-.64L157.13,197,208,194.76l0,.15h8.52l-.1-.52.65,0-.66,0-4.15-22.26L208.1,194l-52-2.3-.87-4.67-.86,4.6-5.53-.24L146.94,181l33-1.69,0,.18h8.52l-.1-.61.65,0-.66,0-1.68-10.42,2.42-.08,0,.18h13.11l-.15-.61,1,0-1,0-6.39-25.75-6.29,25.33-2.82-.09-2.29-14.23-2.27,14.08-62.71-2.08L117.26,153l-1.93,12-17.22-.57-4-16.08,25.31-1L118,156.84h3.91v2.67l49.83-2.74,0,.15h6.84l-.08-.52.52,0-.53,0-1.62-10.83h2.44l-.12-.61.83,0-.85,0-2-9.87,28.81-.63-.07.18H225.7l-.23-.61,1.52,0-1.55,0-9.67-25.75-9.51,25.33-29.61-.65-2.81-13.68-2.79,13.55-80.19-1.76L88.44,119,86,130.77l-17.69-.39L59.92,108,50,134.42H61.34v3.09l23.4-.51L83,145.42h6.21v3.09l1.75-.07-5,20h7.49v3.09l20.89-.69L113,179.42h4.87v3.09l25.68-1.31L141,194.84h4.87v2.67l7.49-.33L151,209.84h4.87v2.67l17-.75-.89,9.09h2.56v2.67l8.88-.75L183,232.84h1.15v2.67l14.7-2.74v.15h2l0-.52.15,0-.16,0-.49-11,6.88-.58v.15h4.48l-.05-.52.34,0-.35,0-1-10.25,7.31-.32,0,.15h8.52l-.1-.52.65,0Zm-52.91-63.83L171.86,156l-47.54-2.62-.93-6.21,45.07-1.81,0,.18Zm-2.87-10.4-1.91,9.31-45.94-1.84-1-6.39ZM93,141.39l-.94-4.56,29-.64-.94,6.28ZM145.26,172l-.86,4.59-23.54-1.2-.77-4.76,61.59-2-1.59,9.84-34-1.74Zm38.4,46-7.52-.63-.56-5.72,8.37-.37Zm15.24,14-14-2.62-.3-6.69,14.79-1.24Zm.56-12.66L184.36,218l-.3-6.78,15.77-.7Zm7.87.66-7-.59-.39-8.82,8.4-.37Z" transform="translate(-20 -19)"/>
  </g>
</svg>
