<svg id="partly-cloudy" xmlns="http://www.w3.org/2000/svg" xmlns:xlink="http://www.w3.org/1999/xlink" viewBox="0 0 228.88 202.64">
  <defs>
    <clipPath id="clip-path" transform="translate(-11.64 -15.57)">
      <rect x="2" y="52" width="250" height="250" fill="none"/>
    </clipPath>
  </defs>
  <title>partly-cloudy</title>
  <g>
    <path d="M108.86,91.67A62,62,0,0,1,123,89a64.25,64.25,0,0,1,43.38,13.31A62.5,62.5,0,0,0,128.5,88.5,59.37,59.37,0,0,0,108.86,91.67Z" transform="translate(-11.64 -15.57)" fill="none" stroke="#000" stroke-miterlimit="10" stroke-width="2"/>
    <path d="M62.5,158.5c-.2-31.84,20.29-58,46.36-66.83C81.33,100.22,61.08,127.32,62.5,158.5Z" transform="translate(-11.64 -15.57)" fill="none" stroke="#000" stroke-miterlimit="10" stroke-width="2"/>
    <path d="M166.38,102.31A70.93,70.93,0,0,1,191.5,142.5,67.21,67.21,0,0,0,166.38,102.31Z" transform="translate(-11.64 -15.57)" fill="none" stroke="#000" stroke-miterlimit="10" stroke-width="2"/>
  </g>
  <path d="M120.3,73.65l.23-1c2.09-9.49,4.1-18.86,6.26-28.12s4.55-18.5,7-27.92l1.23,1.51-33.25.85.71-1,8.9,28.15C114.29,55.2,117.26,64.43,120.3,73.65Zm.65,2-.35-1c-3.13-9.28-6.34-18.55-9.64-27.9L101,18.41l-.34-1,1.05-.05L135,15.65l1.61-.08-.38,1.6C133.87,27,131.46,37,128.82,47,126.28,56.64,123.58,66.19,121,75.63Z" transform="translate(-11.64 -15.57)" fill="#231f20"/>
  <path d="M193.6,122.8l1.07-.13c7.4-.91,14.66-1.89,21.85-2.66s14.44-1.31,21.9-1.81l-1,1.56-6.45-20.53,1.2.43-19.52,11.62C206.31,115,199.94,118.87,193.6,122.8Zm-1.75,1.08.92-.58c6.36-4,12.69-8.1,19.09-12.3l19.42-12.72.85-.56.35,1L239.65,119l.5,1.4-1.52.16c-7.79.81-15.79,1.58-23.85,2.11C207,123.18,199.38,123.51,191.85,123.88Z" transform="translate(-11.64 -15.57)" fill="#231f20"/>
  <path d="M57.62,137.1c-6,3.14-12,6.38-18.25,9.5-6.5,3.27-13.07,6.31-19.49,9.22l-1.46.66-.25-1.53L14.72,133.7l-.17-1,1,.11L36.28,135c6.83.74,13.54,1.42,20.25,2Zm-2.06-.16c-6.64-.52-13.28-1-19.81-1.36l-20.32-1.22.85-.93,4.28,21.09-1.71-.87c6-3,11.79-5.87,17.67-8.5s11.91-5.15,18-7.77Z" transform="translate(-11.64 -15.57)" fill="#231f20"/>
  <path d="M154.65,79.67l.72-.8c5.34-6,10.55-11.93,15.84-17.7S182,49.75,187.6,44L188,46l-26.16-13.4,1.1-.57-4.24,24.1C157.27,63.86,155.93,71.75,154.65,79.67Zm-.33,2.07.16-1.08c1.22-8,2.37-16.06,3.48-24.22l3.41-24.69.14-1,1,.45L189,43.75l1.49.71-1.14,1.24c-5.7,6.19-11.57,12.48-17.62,18.65C166,70.27,160.09,76,154.31,81.73Z" transform="translate(-11.64 -15.57)" fill="#231f20"/>
  <path d="M182.88,94.75l1.05-.33c4.68-1.49,9.24-3,13.79-4.3s9.18-2.47,14-3.61L211,88.45,199,70.58h1.22l-8.89,12.29C188.5,86.74,185.68,90.73,182.88,94.75Zm-1.2,1.75.62-.93c2.78-4.16,5.52-8.38,8.28-12.71L199,69.74l.57-.89.65.87L213.05,87l1.07,1.43-1.77.51c-5.1,1.48-10.38,2.95-15.74,4.24C191.59,94.39,186.58,95.45,181.68,96.5Z" transform="translate(-11.64 -15.57)" fill="#231f20"/>
  <path d="M90.61,81.1l-.4-1c-2.77-6.93-5.57-13.7-8.15-20.45s-5-13.63-7.34-20.71l1.77.59L58.29,51l.11-1.27L74.61,65.65C79.84,70.79,85.2,76,90.61,81.1Zm1.49,1.42-.8-.74c-5.5-5.13-11.07-10.2-16.77-15.32L57.29,50.92l-.75-.68.87-.59L75.19,37.54l1.23-.84L77,38.14c2.77,7.33,5.55,14.86,8.12,22.52C87.56,68,89.82,75.33,92.11,82.51Z" transform="translate(-11.64 -15.57)" fill="#231f20"/>
  <path d="M65.69,104.77l-.82-.69c-6.52-5.47-13-10.78-19.26-16.18S33.21,76.89,27,71.1l1.8-.29L17.7,89.27l-.46-1.2,24.4,8.51C49.56,99.36,57.61,102.1,65.69,104.77Zm1.94.64-1-.34c-8.15-2.64-16.33-5.2-24.66-7.72L16.73,89.65l-1-.3.5-.91L26.73,69.64l.69-1.25,1.1,1c6.7,5.82,13.53,11.82,20.21,18.05C55.19,93.4,61.43,99.48,67.64,105.42Z" transform="translate(-11.64 -15.57)" fill="#231f20"/>
  <g clip-path="url(#clip-path)">
    <line x1="1.84" y1="177.86" x2="23.23" y2="199.26"/>
    <polygon points="3.25 176.44 23.23 199.26 0.42 179.27 3.25 176.44"/>
    <line x1="22.88" y1="198.93" x2="45.88" y2="188.93"/>
    <polygon points="22.08 197.1 45.88 188.93 23.67 200.77 22.08 197.1"/>
    <line x1="26.88" y1="139.93" x2="45.88" y2="151.93"/>
    <polygon points="27.95 138.24 45.88 151.93 25.81 141.62 27.95 138.24"/>
    <line x1="68.88" y1="128.93" x2="39.88" y2="147.93"/>
    <polygon points="69.97 130.6 39.88 147.93 67.78 127.26 69.97 130.6"/>
    <line x1="45.88" y1="188.93" x2="69.88" y2="199.93"/>
    <polygon points="46.71 187.11 69.88 199.93 45.04 190.75 46.71 187.11"/>
    <line x1="68.88" y1="128.93" x2="79.88" y2="134.93"/>
    <polygon points="69.83 127.18 79.88 134.93 67.92 130.69 69.83 127.18"/>
    <line x1="73.88" y1="140.93" x2="92.88" y2="120.93"/>
    <polygon points="72.43 139.56 92.88 120.93 75.33 142.31 72.43 139.56"/>
    <line x1="92.88" y1="120.93" x2="125.88" y2="133.93"/>
    <polygon points="93.61 119.07 125.88 133.93 92.14 122.79 93.61 119.07"/>
    <line x1="117.88" y1="129.93" x2="133.88" y2="119.93"/>
    <polygon points="116.82 128.24 133.88 119.93 118.94 131.63 116.82 128.24"/>
    <line x1="133.88" y1="119.93" x2="162.88" y2="141.93"/>
    <polygon points="135.09 118.34 162.88 141.93 132.67 121.53 135.09 118.34"/>
    <line x1="128.88" y1="191.93" x2="165.88" y2="200.93"/>
    <polygon points="129.35 189.99 165.88 200.93 128.41 193.88 129.35 189.99"/>
    <line x1="188.88" y1="171.93" x2="165.88" y2="200.93"/>
    <polygon points="190.44 173.18 165.88 200.93 187.31 170.69 190.44 173.18"/>
    <line x1="154.88" y1="135.93" x2="193.88" y2="120.93"/>
    <polygon points="154.16 134.07 193.88 120.93 155.59 137.8 154.16 134.07"/>
    <line x1="180.88" y1="181.93" x2="206.88" y2="190.93"/>
    <polygon points="181.53 180.04 206.88 190.93 180.22 183.82 181.53 180.04"/>
    <line x1="193.88" y1="120.93" x2="224.88" y2="145.93"/>
    <polygon points="195.13 119.38 224.88 145.93 192.62 122.49 195.13 119.38"/>
    <line x1="206.58" y1="191.66" x2="216.88" y2="170.93"/>
    <polygon points="204.79 190.78 216.88 170.93 208.38 192.55 204.79 190.78"/>
    <line x1="224.88" y1="145.93" x2="228.88" y2="162.93"/>
    <polygon points="226.82 145.47 228.88 162.93 222.93 146.39 226.82 145.47"/>
    <line x1="212.88" y1="178.93" x2="228.88" y2="162.93"/>
    <polygon points="211.46 177.52 228.88 162.93 214.29 180.35 211.46 177.52"/>
    <line x1="1.88" y1="177.93" x2="8.88" y2="158.93"/>
    <polygon points="0 177.24 8.88 158.93 3.75 178.62 0 177.24"/>
    <line x1="26.88" y1="139.93" x2="8.88" y2="158.93"/>
    <polygon points="28.33 141.31 8.88 158.93 25.43 138.56 28.33 141.31"/>
    <line x1="68.86" y1="199.93" x2="86.86" y2="188.93"/>
    <polygon points="67.81 198.22 86.86 188.93 69.9 201.64 67.81 198.22" fill="#231f20"/>
    <line x1="108.86" y1="200.93" x2="85.86" y2="186.93"/>
    <polygon points="107.82 202.64 85.86 186.93 109.9 199.22 107.82 202.64" fill="#231f20"/>
    <line x1="138.86" y1="184.93" x2="108.86" y2="201.93"/>
    <polygon points="139.84 186.67 108.86 201.93 137.87 183.19 139.84 186.67" fill="#231f20"/>
  </g>
</svg>
