<svg id="rain" xmlns="http://www.w3.org/2000/svg" xmlns:xlink="http://www.w3.org/1999/xlink" viewBox="0 0 228.88 216.74">
  <defs>
    <clipPath id="clip-path" transform="translate(-9.64 -11.91)">
      <rect y="-70" width="250" height="250" fill="none"/>
    </clipPath>
  </defs>
  <title>rainy</title>
  <g>
    <g>
      <path d="M38.65,100.5c.24,1.83.4,3.67.6,5.5s.33,3.67.45,5.5A29.08,29.08,0,0,1,40,117a20.41,20.41,0,0,1-.44,2.75,13.33,13.33,0,0,1-.91,2.75l-.07.15h-.16l-.07-.15a13.33,13.33,0,0,1-.91-2.75A20.41,20.41,0,0,1,37,117a29.08,29.08,0,0,1,.3-5.5q.19-2.75.45-5.5c.2-1.83.36-3.67.6-5.5l0-.15h.26Z" transform="translate(-9.64 -11.91)" fill="#231f20"/>
      <path d="M56.65,83.5c.24,3.67.4,7.33.6,11l.45,11c.13,3.67.52,7.33.3,11a66,66,0,0,1-1.35,11l0,.15h-.23l0-.15a66,66,0,0,1-1.35-11c-.22-3.67.17-7.33.3-11l.45-11c.2-3.67.36-7.33.6-11v-.15h.28Z" transform="translate(-9.64 -11.91)" fill="#231f20"/>
      <path d="M38.65,144.5c.24.92.4,1.83.6,2.75s.33,1.83.45,2.75a7.39,7.39,0,0,1,.3,2.75,5.71,5.71,0,0,1-.44,1.38,4.91,4.91,0,0,1-.91,1.38l-.14.15h0l-.14-.15a4.91,4.91,0,0,1-.91-1.37,5.71,5.71,0,0,1-.44-1.37,7.39,7.39,0,0,1,.3-2.75q.19-1.38.45-2.75c.2-.92.36-1.83.6-2.75l0-.15h.22Z" transform="translate(-9.64 -11.91)" fill="#231f20"/>
      <path d="M38.65,173.5c.24,2.92.4,5.83.6,8.75L39.7,191a73.06,73.06,0,0,1,.3,8.75,42.37,42.37,0,0,1-1.35,8.75l0,.15h-.21l0-.15A42.37,42.37,0,0,1,37,199.75a73.06,73.06,0,0,1,.3-8.75l.45-8.75c.2-2.92.36-5.83.6-8.75v-.15h.28Z" transform="translate(-9.64 -11.91)" fill="#231f20"/>
      <path d="M56.65,154.5c.24,2.83.4,5.67.6,8.5s.33,5.67.45,8.5A69,69,0,0,1,58,180a40.07,40.07,0,0,1-1.35,8.5l0,.15h-.21l0-.15A40.07,40.07,0,0,1,55,180a69,69,0,0,1,.3-8.5q.19-4.25.45-8.5c.2-2.83.36-5.67.6-8.5v-.15h.27Z" transform="translate(-9.64 -11.91)" fill="#231f20"/>
      <path d="M79.65,108.5,80,130l.2,21.51c0,7.17.35,14.34,0,21.5s-.69,14.33-1.6,21.48l0,.15h-.27l0-.15c-.74-7.18-1-14.35-1.1-21.52s.34-14.33.55-21.5L78.5,130l.85-21.49v-.15h.29Z" transform="translate(-9.64 -11.91)" fill="#231f20"/>
      <path d="M93.65,131.5c.24,2.92.4,5.83.6,8.75L94.7,149a73.05,73.05,0,0,1,.3,8.75,42.37,42.37,0,0,1-1.35,8.75l0,.15h-.21l0-.15A42.37,42.37,0,0,1,92,157.75a73.05,73.05,0,0,1,.3-8.75l.45-8.75c.2-2.92.36-5.83.6-8.75v-.15h.28Z" transform="translate(-9.64 -11.91)" fill="#231f20"/>
      <path d="M93.65,190.5c.24,1.83.4,3.67.6,5.5s.33,3.67.45,5.5A29.08,29.08,0,0,1,95,207a20.41,20.41,0,0,1-.44,2.75,13.32,13.32,0,0,1-.91,2.75l-.07.15h-.16l-.07-.15a13.32,13.32,0,0,1-.91-2.75A20.41,20.41,0,0,1,92,207a29.08,29.08,0,0,1,.3-5.5q.19-2.75.45-5.5c.2-1.83.36-3.67.6-5.5l0-.15h.26Z" transform="translate(-9.64 -11.91)" fill="#231f20"/>
      <path d="M127.65,109.5c.24,2.25.4,4.5.6,6.75s.33,4.5.45,6.75a43.55,43.55,0,0,1,.3,6.75,25.85,25.85,0,0,1-1.35,6.75l-.06.15h-.19l-.06-.15a25.85,25.85,0,0,1-1.35-6.75,43.55,43.55,0,0,1,.3-6.75q.19-3.37.45-6.75c.2-2.25.36-4.5.6-6.75l0-.15h.27Z" transform="translate(-9.64 -11.91)" fill="#231f20"/>
      <path d="M201.65,110.5c.24,1.83.4,3.67.6,5.5s.33,3.67.45,5.5a29.08,29.08,0,0,1,.3,5.5,20.41,20.41,0,0,1-.44,2.75,13.33,13.33,0,0,1-.91,2.75l-.07.15h-.16l-.07-.15a13.33,13.33,0,0,1-.91-2.75A20.41,20.41,0,0,1,200,127a29.08,29.08,0,0,1,.3-5.5q.19-2.75.45-5.5c.2-1.83.36-3.67.6-5.5l0-.15h.26Z" transform="translate(-9.64 -11.91)" fill="#231f20"/>
      <path d="M183.65,121.5c.24,3.67.4,7.33.6,11l.45,11c.13,3.67.52,7.33.3,11a66,66,0,0,1-1.35,11l0,.15h-.23l0-.15a66,66,0,0,1-1.35-11c-.22-3.67.17-7.33.3-11l.45-11c.2-3.67.36-7.33.6-11v-.15h.28Z" transform="translate(-9.64 -11.91)" fill="#231f20"/>
      <path d="M201.65,154.5c.24.92.4,1.83.6,2.75s.33,1.83.45,2.75a7.39,7.39,0,0,1,.3,2.75,5.71,5.71,0,0,1-.44,1.38,4.91,4.91,0,0,1-.91,1.38l-.14.15h0l-.14-.15a4.91,4.91,0,0,1-.91-1.37,5.71,5.71,0,0,1-.44-1.37,7.39,7.39,0,0,1,.3-2.75q.19-1.38.45-2.75c.2-.92.36-1.83.6-2.75l0-.15h.22Z" transform="translate(-9.64 -11.91)" fill="#231f20"/>
      <path d="M201.65,183.5c.24,2.92.4,5.83.6,8.75l.45,8.75a73.06,73.06,0,0,1,.3,8.75,42.36,42.36,0,0,1-1.35,8.75l0,.15h-.21l0-.15a42.36,42.36,0,0,1-1.35-8.75,73.06,73.06,0,0,1,.3-8.75l.45-8.75c.2-2.92.36-5.83.6-8.75v-.15h.28Z" transform="translate(-9.64 -11.91)" fill="#231f20"/>
      <path d="M183.65,183.5c.24,1.25.4,2.5.6,3.75s.33,2.5.45,3.75a13.62,13.62,0,0,1,.3,3.75,9.92,9.92,0,0,1-.44,1.88,7.28,7.28,0,0,1-.91,1.88l-.1.15h-.09l-.1-.15a7.28,7.28,0,0,1-.91-1.87,9.92,9.92,0,0,1-.44-1.87,13.62,13.62,0,0,1,.3-3.75q.19-1.87.45-3.75c.2-1.25.36-2.5.6-3.75l0-.15h.24Z" transform="translate(-9.64 -11.91)" fill="#231f20"/>
      <path d="M160.65,118.5,161.5,140l.7,21.49c.21,7.17.69,14.33.55,21.5s-.36,14.34-1.1,21.52l0,.15h-.27l0-.15c-.91-7.16-1.32-14.32-1.6-21.48s0-14.34,0-21.5L160,140l.35-21.51v-.15h.29Z" transform="translate(-9.64 -11.91)" fill="#231f20"/>
      <path d="M146.65,141.5c.24,2.92.4,5.83.6,8.75l.45,8.75a73.06,73.06,0,0,1,.3,8.75,42.36,42.36,0,0,1-1.35,8.75l0,.15h-.21l0-.15a42.36,42.36,0,0,1-1.35-8.75,73.06,73.06,0,0,1,.3-8.75l.45-8.75c.2-2.92.36-5.83.6-8.75v-.15h.28Z" transform="translate(-9.64 -11.91)" fill="#231f20"/>
      <path d="M146.65,200.5c.24,1.83.4,3.67.6,5.5s.33,3.67.45,5.5a29.08,29.08,0,0,1,.3,5.5,20.41,20.41,0,0,1-.44,2.75,13.33,13.33,0,0,1-.91,2.75l-.07.15h-.16l-.07-.15a13.33,13.33,0,0,1-.91-2.75A20.41,20.41,0,0,1,145,217a29.08,29.08,0,0,1,.3-5.5q.19-2.75.45-5.5c.2-1.83.36-3.67.6-5.5l0-.15h.26Z" transform="translate(-9.64 -11.91)" fill="#231f20"/>
      <path d="M112.65,119.5c.24,2.25.4,4.5.6,6.75s.33,4.5.45,6.75a43.55,43.55,0,0,1,.3,6.75,25.85,25.85,0,0,1-1.35,6.75l-.06.15h-.19l-.06-.15a25.85,25.85,0,0,1-1.35-6.75,43.55,43.55,0,0,1,.3-6.75q.19-3.37.45-6.75c.2-2.25.36-4.5.6-6.75l0-.15h.27Z" transform="translate(-9.64 -11.91)" fill="#231f20"/>
      <path d="M119.65,158.5c.24,2.08.4,4.17.6,6.25s.33,4.17.45,6.25a37.37,37.37,0,0,1,.3,6.25,22.39,22.39,0,0,1-1.35,6.25l-.06.15h-.18l-.06-.15a22.39,22.39,0,0,1-1.35-6.25,37.37,37.37,0,0,1,.3-6.25q.19-3.12.45-6.25c.2-2.08.36-4.17.6-6.25l0-.15h.27Z" transform="translate(-9.64 -11.91)" fill="#231f20"/>
      <path d="M119.65,204.5c.24,2,.4,4,.6,6s.33,4,.45,6a34.57,34.57,0,0,1,.3,6,24.14,24.14,0,0,1-.44,3,15.48,15.48,0,0,1-.91,3l-.06.15h-.17l-.06-.15a15.48,15.48,0,0,1-.91-3,24.14,24.14,0,0,1-.44-3,34.57,34.57,0,0,1,.3-6q.19-3,.45-6c.2-2,.36-4,.6-6l0-.15h.26Z" transform="translate(-9.64 -11.91)" fill="#231f20"/>
      <path d="M226.65,95.5l.6,19.5.45,19.5c.13,6.5.52,13,.3,19.5s-.52,13-1.35,19.5l0,.15h-.26l0-.15c-.83-6.5-1.15-13-1.35-19.5s.17-13,.3-19.5l.45-19.5.6-19.5v-.15h.29Z" transform="translate(-9.64 -11.91)" fill="#231f20"/>
      <path d="M191.65,78.5c.24,2.08.4,4.17.6,6.25s.33,4.17.45,6.25a37.37,37.37,0,0,1,.3,6.25,22.39,22.39,0,0,1-1.35,6.25l-.06.15h-.18l-.06-.15A22.39,22.39,0,0,1,190,97.25a37.37,37.37,0,0,1,.3-6.25q.19-3.13.45-6.25c.2-2.08.36-4.17.6-6.25l0-.15h.27Z" transform="translate(-9.64 -11.91)" fill="#231f20"/>
    </g>
    <g clip-path="url(#clip-path)">
      <line x1="1.84" y1="59.52" x2="23.23" y2="80.92"/>
      <polygon points="3.25 58.1 23.23 80.92 0.42 60.93 3.25 58.1"/>
      <line x1="22.88" y1="80.59" x2="45.88" y2="70.59"/>
      <polygon points="22.08 78.76 45.88 70.59 23.67 82.43 22.08 78.76"/>
      <line x1="26.88" y1="21.59" x2="45.88" y2="33.59"/>
      <polygon points="27.95 19.9 45.88 33.59 25.81 23.28 27.95 19.9"/>
      <line x1="68.88" y1="10.59" x2="39.88" y2="29.59"/>
      <polygon points="69.97 12.27 39.88 29.59 67.78 8.92 69.97 12.27"/>
      <line x1="45.88" y1="70.59" x2="69.88" y2="81.59"/>
      <polygon points="46.71 68.78 69.88 81.59 45.04 72.41 46.71 68.78"/>
      <line x1="68.88" y1="10.59" x2="79.88" y2="16.59"/>
      <polygon points="69.83 8.84 79.88 16.59 67.92 12.35 69.83 8.84"/>
      <line x1="73.88" y1="22.59" x2="92.88" y2="2.59"/>
      <polygon points="72.43 21.22 92.88 2.59 75.33 23.97 72.43 21.22"/>
      <line x1="92.88" y1="2.59" x2="125.88" y2="15.59"/>
      <polygon points="93.61 0.73 125.88 15.59 92.14 4.46 93.61 0.73"/>
      <line x1="117.88" y1="11.59" x2="133.88" y2="1.59"/>
      <polygon points="116.82 9.9 133.88 1.59 118.94 13.29 116.82 9.9"/>
      <line x1="133.88" y1="1.59" x2="162.88" y2="23.59"/>
      <polygon points="135.09 0 162.88 23.59 132.67 3.19 135.09 0"/>
      <line x1="128.88" y1="73.59" x2="165.88" y2="82.59"/>
      <polygon points="129.35 71.65 165.88 82.59 128.41 75.54 129.35 71.65"/>
      <line x1="188.88" y1="53.59" x2="165.88" y2="82.59"/>
      <polygon points="190.44 54.84 165.88 82.59 187.31 52.35 190.44 54.84"/>
      <line x1="154.88" y1="17.59" x2="193.88" y2="2.59"/>
      <polygon points="154.16 15.73 193.88 2.59 155.59 19.46 154.16 15.73"/>
      <line x1="180.88" y1="63.59" x2="206.88" y2="72.59"/>
      <polygon points="181.53 61.7 206.88 72.59 180.22 65.48 181.53 61.7"/>
      <line x1="193.88" y1="2.59" x2="224.88" y2="27.59"/>
      <polygon points="195.13 1.04 224.88 27.59 192.62 4.15 195.13 1.04"/>
      <line x1="206.58" y1="73.33" x2="216.88" y2="52.59"/>
      <polygon points="204.79 72.44 216.88 52.59 208.38 74.22 204.79 72.44"/>
      <line x1="224.88" y1="27.59" x2="228.88" y2="44.59"/>
      <polygon points="226.82 27.14 228.88 44.59 222.93 28.05 226.82 27.14"/>
      <line x1="212.88" y1="60.59" x2="228.88" y2="44.59"/>
      <polygon points="211.46 59.18 228.88 44.59 214.29 62.01 211.46 59.18"/>
      <line x1="1.88" y1="59.59" x2="8.88" y2="40.59"/>
      <polygon points="0 58.9 8.88 40.59 3.75 60.28 0 58.9"/>
      <line x1="26.88" y1="21.59" x2="8.88" y2="40.59"/>
      <polygon points="28.33 22.97 8.88 40.59 25.43 20.22 28.33 22.97"/>
      <line x1="68.86" y1="81.59" x2="86.86" y2="70.59"/>
      <polygon points="67.81 79.89 86.86 70.59 69.9 83.3 67.81 79.89" fill="#231f20"/>
      <line x1="108.86" y1="82.59" x2="85.86" y2="68.59"/>
      <polygon points="107.82 84.3 85.86 68.59 109.9 80.89 107.82 84.3" fill="#231f20"/>
      <line x1="138.86" y1="66.59" x2="108.86" y2="83.59"/>
      <polygon points="139.84 68.33 108.86 83.59 137.87 64.85 139.84 68.33" fill="#231f20"/>
    </g>
  </g>
</svg>
