<svg id="snow" xmlns="http://www.w3.org/2000/svg" xmlns:xlink="http://www.w3.org/1999/xlink" viewBox="0 0 228.88 202.63">
  <defs>
    <clipPath id="clip-path" transform="translate(-9.64 -11.91)">
      <rect y="-70" width="250" height="250" fill="none"/>
    </clipPath>
  </defs>
  <title>snowy</title>
  <g>
    <g clip-path="url(#clip-path)">
      <line x1="1.84" y1="59.52" x2="23.23" y2="80.92"/>
      <polygon points="3.25 58.1 23.23 80.92 0.42 60.93 3.25 58.1"/>
      <line x1="22.88" y1="80.59" x2="45.88" y2="70.59"/>
      <polygon points="22.08 78.76 45.88 70.59 23.67 82.43 22.08 78.76"/>
      <line x1="26.88" y1="21.59" x2="45.88" y2="33.59"/>
      <polygon points="27.95 19.9 45.88 33.59 25.81 23.28 27.95 19.9"/>
      <line x1="68.88" y1="10.59" x2="39.88" y2="29.59"/>
      <polygon points="69.97 12.27 39.88 29.59 67.78 8.92 69.97 12.27"/>
      <line x1="45.88" y1="70.59" x2="69.88" y2="81.59"/>
      <polygon points="46.71 68.78 69.88 81.59 45.04 72.41 46.71 68.78"/>
      <line x1="68.88" y1="10.59" x2="79.88" y2="16.59"/>
      <polygon points="69.83 8.84 79.88 16.59 67.92 12.35 69.83 8.84"/>
      <line x1="73.88" y1="22.59" x2="92.88" y2="2.59"/>
      <polygon points="72.43 21.22 92.88 2.59 75.33 23.97 72.43 21.22"/>
      <line x1="92.88" y1="2.59" x2="125.88" y2="15.59"/>
      <polygon points="93.61 0.73 125.88 15.59 92.14 4.46 93.61 0.73"/>
      <line x1="117.88" y1="11.59" x2="133.88" y2="1.59"/>
      <polygon points="116.82 9.9 133.88 1.59 118.94 13.29 116.82 9.9"/>
      <line x1="133.88" y1="1.59" x2="162.88" y2="23.59"/>
      <polygon points="135.09 0 162.88 23.59 132.67 3.19 135.09 0"/>
      <line x1="128.88" y1="73.59" x2="165.88" y2="82.59"/>
      <polygon points="129.35 71.65 165.88 82.59 128.41 75.54 129.35 71.65"/>
      <line x1="188.88" y1="53.59" x2="165.88" y2="82.59"/>
      <polygon points="190.44 54.84 165.88 82.59 187.31 52.35 190.44 54.84"/>
      <line x1="154.88" y1="17.59" x2="193.88" y2="2.59"/>
      <polygon points="154.16 15.73 193.88 2.59 155.59 19.46 154.16 15.73"/>
      <line x1="180.88" y1="63.59" x2="206.88" y2="72.59"/>
      <polygon points="181.53 61.7 206.88 72.59 180.22 65.48 181.53 61.7"/>
      <line x1="193.88" y1="2.59" x2="224.88" y2="27.59"/>
      <polygon points="195.13 1.04 224.88 27.59 192.62 4.15 195.13 1.04"/>
      <line x1="206.58" y1="73.33" x2="216.88" y2="52.59"/>
      <polygon points="204.79 72.44 216.88 52.59 208.38 74.22 204.79 72.44"/>
      <line x1="224.88" y1="27.59" x2="228.88" y2="44.59"/>
      <polygon points="226.82 27.14 228.88 44.59 222.93 28.05 226.82 27.14"/>
      <line x1="212.88" y1="60.59" x2="228.88" y2="44.59"/>
      <polygon points="211.46 59.18 228.88 44.59 214.29 62.01 211.46 59.18"/>
      <line x1="1.88" y1="59.59" x2="8.88" y2="40.59"/>
      <polygon points="0 58.9 8.88 40.59 3.75 60.28 0 58.9"/>
      <line x1="26.88" y1="21.59" x2="8.88" y2="40.59"/>
      <polygon points="28.33 22.97 8.88 40.59 25.43 20.22 28.33 22.97"/>
      <line x1="68.86" y1="81.59" x2="86.86" y2="70.59"/>
      <polygon points="67.81 79.89 86.86 70.59 69.9 83.3 67.81 79.89" fill="#231f20"/>
      <line x1="108.86" y1="82.59" x2="85.86" y2="68.59"/>
      <polygon points="107.82 84.3 85.86 68.59 109.9 80.89 107.82 84.3" fill="#231f20"/>
      <line x1="138.86" y1="66.59" x2="108.86" y2="83.59"/>
      <polygon points="139.84 68.33 108.86 83.59 137.87 64.85 139.84 68.33" fill="#231f20"/>
    </g>
    <g>
      <path d="M78.65,143a70.79,70.79,0,0,1-5.45,4.58l-.93.7-.62-.83-3.87-5.16-.47-.63.57-.42,5.74-4.3.3-.22.2.27c1.35,1.79,2.61,3.53,3.87,5.16Zm-1.34-1.58c-1.28-1.39-2.54-2.71-3.74-4l.5,0-5.23,4.91.09-1.06L73.34,146l-1.56-.14a39.16,39.16,0,0,1,4.7-3.89Z" transform="translate(-9.64 -11.91)" fill="#231f20"/>
      <path d="M142.59,115.29a70.79,70.79,0,0,1-5.45,4.58l-.93.7-.62-.83-3.87-5.16-.47-.63.57-.42,5.74-4.3.3-.22.2.27c1.35,1.79,2.61,3.53,3.87,5.16Zm-1.34-1.58c-1.28-1.39-2.54-2.71-3.74-4l.5,0-5.23,4.91.09-1.06,4.41,4.71-1.56-.14a39.16,39.16,0,0,1,4.7-3.89Z" transform="translate(-9.64 -11.91)" fill="#231f20"/>
      <path d="M57.36,160.48a70.79,70.79,0,0,1-5.45,4.58l-.93.7-.62-.83-3.87-5.16-.47-.63.57-.42,5.74-4.3.3-.22.2.27c1.35,1.79,2.61,3.53,3.87,5.16ZM56,158.9c-1.28-1.39-2.54-2.71-3.74-4l.5,0-5.23,4.91.09-1.06L52,163.51l-1.56-.14a39.16,39.16,0,0,1,4.7-3.89Z" transform="translate(-9.64 -11.91)" fill="#231f20"/>
      <path d="M225.32,201.75a70.79,70.79,0,0,1-5.45,4.58l-.93.7-.62-.83L214.45,201l-.47-.63.57-.42,5.74-4.3.3-.22.2.27c1.35,1.79,2.61,3.53,3.87,5.16ZM224,200.16c-1.28-1.39-2.54-2.71-3.74-4l.5,0-5.23,4.91.09-1.06,4.41,4.71-1.56-.14a39.16,39.16,0,0,1,4.7-3.89Z" transform="translate(-9.64 -11.91)" fill="#231f20"/>
      <path d="M214,173.77a70.79,70.79,0,0,1-5.45,4.58l-.93.7-.62-.83-3.87-5.16-.47-.63.57-.42,5.74-4.3.3-.22.2.27c1.35,1.79,2.61,3.53,3.87,5.16Zm-1.34-1.58c-1.28-1.39-2.54-2.71-3.74-4l.5,0-5.23,4.91.09-1.06,4.41,4.71-1.56-.14a39.16,39.16,0,0,1,4.7-3.89Z" transform="translate(-9.64 -11.91)" fill="#231f20"/>
      <path d="M129.07,209.25a70.79,70.79,0,0,1-5.45,4.58l-.93.7-.63-.83-3.87-5.16-.47-.63.57-.42,5.74-4.3.3-.22.2.27c1.35,1.79,2.61,3.53,3.87,5.16Zm-1.34-1.58c-1.28-1.39-2.54-2.71-3.74-4l.5,0-5.23,4.91.09-1.06,4.41,4.71-1.56-.14a39.16,39.16,0,0,1,4.7-3.89Z" transform="translate(-9.64 -11.91)" fill="#231f20"/>
      <path d="M75.41,204.47A70.79,70.79,0,0,1,70,209.06l-.93.7-.62-.83-3.87-5.16-.47-.63.57-.42,5.74-4.3.3-.22.2.27c1.35,1.79,2.61,3.53,3.87,5.16Zm-1.34-1.58c-1.28-1.39-2.54-2.71-3.74-4l.5,0-5.23,4.91.09-1.06,4.41,4.71-1.56-.14a39.16,39.16,0,0,1,4.7-3.89Z" transform="translate(-9.64 -11.91)" fill="#231f20"/>
      <path d="M179.11,201.62a70.79,70.79,0,0,1-5.45,4.58l-.93.7-.62-.83-3.87-5.16-.47-.63.57-.42,5.74-4.3.3-.22.2.27c1.35,1.79,2.61,3.53,3.87,5.16ZM177.77,200c-1.28-1.39-2.54-2.71-3.74-4l.5,0L169.3,201l.09-1.06,4.41,4.71-1.56-.14a39.16,39.16,0,0,1,4.7-3.89Z" transform="translate(-9.64 -11.91)" fill="#231f20"/>
      <path d="M221.74,123.8a70.79,70.79,0,0,1-5.45,4.58l-.93.7-.62-.83-3.87-5.16-.47-.63L211,122l5.74-4.3.3-.22.2.27c1.35,1.79,2.61,3.53,3.87,5.16Zm-1.34-1.58c-1.28-1.39-2.54-2.71-3.74-4l.5,0-5.23,4.91.09-1.06,4.41,4.71-1.56-.14a39.16,39.16,0,0,1,4.7-3.89Z" transform="translate(-9.64 -11.91)" fill="#231f20"/>
      <path d="M217.92,98.79a70.79,70.79,0,0,1-5.45,4.58l-.93.7-.62-.83L207,98.07l-.47-.63.57-.42,5.74-4.3.3-.22.2.27c1.35,1.79,2.61,3.53,3.87,5.16Zm-1.34-1.58c-1.28-1.39-2.54-2.71-3.74-4l.5,0-5.23,4.91.09-1.06,4.41,4.71-1.56-.14a39.16,39.16,0,0,1,4.7-3.89Z" transform="translate(-9.64 -11.91)" fill="#231f20"/>
      <path d="M169.62,138.26a70.79,70.79,0,0,1-5.45,4.58l-.93.7-.62-.83-3.87-5.16-.47-.63.57-.42,5.74-4.3.3-.22.2.27c1.35,1.79,2.61,3.53,3.87,5.16Zm-1.34-1.58c-1.28-1.39-2.54-2.71-3.74-4l.5,0-5.23,4.91.09-1.06,4.41,4.71-1.56-.14a39.16,39.16,0,0,1,4.7-3.89Z" transform="translate(-9.64 -11.91)" fill="#231f20"/>
      <path d="M201.57,149.21a70.8,70.8,0,0,1-5.45,4.58l-.93.7-.62-.83-3.87-5.16-.47-.63.57-.42,5.74-4.3.3-.22.2.27c1.35,1.79,2.61,3.53,3.87,5.16Zm-1.34-1.58c-1.28-1.39-2.54-2.71-3.74-4l.5,0-5.23,4.91.09-1.06,4.41,4.71-1.56-.14a39.16,39.16,0,0,1,4.7-3.89Z" transform="translate(-9.64 -11.91)" fill="#231f20"/>
      <path d="M85.54,109.85a70.79,70.79,0,0,1-5.45,4.58l-.93.7-.62-.83-3.87-5.16-.47-.63.57-.42,5.74-4.3.3-.22.2.27c1.35,1.79,2.61,3.53,3.87,5.16Zm-1.34-1.58c-1.28-1.39-2.54-2.71-3.74-4l.5,0-5.23,4.91.09-1.06,4.41,4.71-1.56-.14a39.16,39.16,0,0,1,4.7-3.89Z" transform="translate(-9.64 -11.91)" fill="#231f20"/>
      <path d="M175.47,108.55a70.79,70.79,0,0,1-5.45,4.58l-.93.7-.62-.83-3.87-5.16-.47-.63.57-.42,5.74-4.3.3-.22.2.27c1.35,1.79,2.61,3.53,3.87,5.16ZM174.13,107c-1.28-1.39-2.54-2.71-3.74-4l.5,0-5.23,4.91.09-1.06,4.41,4.71-1.56-.14a39.16,39.16,0,0,1,4.7-3.89Z" transform="translate(-9.64 -11.91)" fill="#231f20"/>
      <path d="M142.32,169.08a70.79,70.79,0,0,1-5.45,4.58l-.93.7-.62-.83-3.87-5.16-.47-.63.57-.42,5.74-4.3.3-.22.2.27c1.35,1.79,2.61,3.53,3.87,5.16ZM141,167.5c-1.28-1.39-2.54-2.71-3.74-4l.5,0-5.23,4.91.09-1.06L137,172.1l-1.56-.14a39.16,39.16,0,0,1,4.7-3.89Z" transform="translate(-9.64 -11.91)" fill="#231f20"/>
      <path d="M112,127.8a70.79,70.79,0,0,1-5.45,4.58l-.93.7-.62-.83-3.87-5.16-.47-.63.57-.42,5.74-4.3.3-.22.2.27c1.35,1.79,2.61,3.53,3.87,5.16Zm-1.34-1.58c-1.28-1.39-2.54-2.71-3.74-4l.5,0-5.23,4.91.09-1.06,4.41,4.71-1.56-.14a39.16,39.16,0,0,1,4.7-3.89Z" transform="translate(-9.64 -11.91)" fill="#231f20"/>
      <path d="M105.42,171a70.79,70.79,0,0,1-5.45,4.58l-.93.7-.62-.83-3.87-5.16-.47-.63.57-.42,5.74-4.3.3-.22.2.27c1.35,1.79,2.61,3.53,3.87,5.16Zm-1.34-1.58c-1.28-1.39-2.54-2.71-3.74-4l.5,0-5.23,4.91.09-1.06L100.1,174l-1.56-.14a39.16,39.16,0,0,1,4.7-3.89Z" transform="translate(-9.64 -11.91)" fill="#231f20"/>
      <path d="M54.54,108.85a70.79,70.79,0,0,1-5.45,4.58l-.93.7-.62-.83-3.87-5.16-.47-.63.57-.42,5.74-4.3.3-.22.2.27c1.35,1.79,2.61,3.53,3.87,5.16Zm-1.34-1.58c-1.28-1.39-2.54-2.71-3.74-4l.5,0-5.23,4.91.09-1.06,4.41,4.71-1.56-.14a39.16,39.16,0,0,1,4.7-3.89Z" transform="translate(-9.64 -11.91)" fill="#231f20"/>
      <path d="M47.74,194.8a70.79,70.79,0,0,1-5.45,4.58l-.93.7-.62-.83-3.87-5.16-.47-.63L37,193l5.74-4.3.3-.22.2.27c1.35,1.79,2.61,3.53,3.87,5.16Zm-1.34-1.58c-1.28-1.39-2.54-2.71-3.74-4l.5,0-5.23,4.91.09-1.06,4.41,4.71-1.56-.14a39.16,39.16,0,0,1,4.7-3.89Z" transform="translate(-9.64 -11.91)" fill="#231f20"/>
      <path d="M34.62,133.26a70.79,70.79,0,0,1-5.45,4.58l-.93.7-.63-.83-3.87-5.16-.47-.63.57-.42,5.74-4.3.3-.22.2.27c1.35,1.79,2.61,3.53,3.87,5.16Zm-1.34-1.58c-1.28-1.39-2.54-2.71-3.74-4l.5,0-5.23,4.91.09-1.06,4.41,4.71-1.56-.14a39.16,39.16,0,0,1,4.7-3.89Z" transform="translate(-9.64 -11.91)" fill="#231f20"/>
    </g>
  </g>
</svg>
