<svg id="storm-cloud" xmlns="http://www.w3.org/2000/svg" xmlns:xlink="http://www.w3.org/1999/xlink" viewBox="0 0 228.88 165.66">
  <defs>
    <clipPath id="clip-path" transform="translate(-9.64 -41.91)">
      <rect y="-40" width="250" height="250" fill="none"/>
    </clipPath>
  </defs>
  <title>stormy</title>
  <g>
    <g>
      <polygon points="97 72.89 74.86 104.71 92.72 70.3 97 72.89" fill="#231f20"/>
      <polygon points="150.61 80.52 134.13 103.15 148.1 78.89 150.61 80.52" fill="#231f20"/>
      <path d="M84.5,146.62a30.78,30.78,0,0,1,3.89.07c1.08.51,2.18,1,3.26,1.47l6.54,2.92,6.54,2.92,3.27,1.46a37.42,37.42,0,0,1,2.66,2.83,37.42,37.42,0,0,1-3.88-.09l-3.27-1.46L97,153.82l-6.54-2.92c-1.09-.48-2.17-1-3.27-1.44A30.79,30.79,0,0,1,84.5,146.62Z" transform="translate(-9.64 -41.91)" fill="#231f20"/>
      <polygon points="76.52 163.69 101.01 116.38 79.22 165 76.52 163.69" fill="#231f20"/>
      <path d="M143.84,145.32a18.07,18.07,0,0,1,2.17,1.06c.45.58.92,1.14,1.38,1.71l2.77,3.4,2.77,3.4,1.38,1.7a21.94,21.94,0,0,1,.61,2.33,21.94,21.94,0,0,1-2.16-1.07l-1.38-1.7-2.77-3.4-2.77-3.4c-.46-.56-.91-1.14-1.39-1.7A18.07,18.07,0,0,1,143.84,145.32Z" transform="translate(-9.64 -41.91)" fill="#231f20"/>
      <polygon points="77.23 162.38 145.26 117.03 79.53 165.66 77.23 162.38" fill="#231f20"/>
    </g>
    <g clip-path="url(#clip-path)">
      <line x1="1.84" y1="59.52" x2="23.23" y2="80.92"/>
      <polygon points="3.25 58.1 23.23 80.92 0.42 60.93 3.25 58.1"/>
      <line x1="22.88" y1="80.59" x2="45.88" y2="70.59"/>
      <polygon points="22.08 78.76 45.88 70.59 23.67 82.43 22.08 78.76"/>
      <line x1="26.88" y1="21.59" x2="45.88" y2="33.59"/>
      <polygon points="27.95 19.9 45.88 33.59 25.81 23.28 27.95 19.9"/>
      <line x1="68.88" y1="10.59" x2="39.88" y2="29.59"/>
      <polygon points="69.97 12.27 39.88 29.59 67.78 8.92 69.97 12.27"/>
      <line x1="45.88" y1="70.59" x2="69.88" y2="81.59"/>
      <polygon points="46.71 68.78 69.88 81.59 45.04 72.41 46.71 68.78"/>
      <line x1="68.88" y1="10.59" x2="79.88" y2="16.59"/>
      <polygon points="69.83 8.84 79.88 16.59 67.92 12.35 69.83 8.84"/>
      <line x1="73.88" y1="22.59" x2="92.88" y2="2.59"/>
      <polygon points="72.43 21.22 92.88 2.59 75.33 23.97 72.43 21.22"/>
      <line x1="92.88" y1="2.59" x2="125.88" y2="15.59"/>
      <polygon points="93.61 0.73 125.88 15.59 92.14 4.46 93.61 0.73"/>
      <line x1="117.88" y1="11.59" x2="133.88" y2="1.59"/>
      <polygon points="116.82 9.9 133.88 1.59 118.94 13.29 116.82 9.9"/>
      <line x1="133.88" y1="1.59" x2="162.88" y2="23.59"/>
      <polygon points="135.09 0 162.88 23.59 132.67 3.19 135.09 0"/>
      <line x1="128.88" y1="73.59" x2="165.88" y2="82.59"/>
      <polygon points="129.35 71.65 165.88 82.59 128.41 75.54 129.35 71.65"/>
      <line x1="188.88" y1="53.59" x2="165.88" y2="82.59"/>
      <polygon points="190.44 54.84 165.88 82.59 187.31 52.35 190.44 54.84"/>
      <line x1="154.88" y1="17.59" x2="193.88" y2="2.59"/>
      <polygon points="154.16 15.73 193.88 2.59 155.59 19.46 154.16 15.73"/>
      <line x1="180.88" y1="63.59" x2="206.88" y2="72.59"/>
      <polygon points="181.53 61.7 206.88 72.59 180.22 65.48 181.53 61.7"/>
      <line x1="193.88" y1="2.59" x2="224.88" y2="27.59"/>
      <polygon points="195.13 1.04 224.88 27.59 192.62 4.15 195.13 1.04"/>
      <line x1="206.58" y1="73.33" x2="216.88" y2="52.59"/>
      <polygon points="204.79 72.44 216.88 52.59 208.38 74.22 204.79 72.44"/>
      <line x1="224.88" y1="27.59" x2="228.88" y2="44.59"/>
      <polygon points="226.82 27.14 228.88 44.59 222.93 28.05 226.82 27.14"/>
      <line x1="212.88" y1="60.59" x2="228.88" y2="44.59"/>
      <polygon points="211.46 59.18 228.88 44.59 214.29 62.01 211.46 59.18"/>
      <line x1="1.88" y1="59.59" x2="8.88" y2="40.59"/>
      <polygon points="0 58.9 8.88 40.59 3.75 60.28 0 58.9"/>
      <line x1="26.88" y1="21.59" x2="8.88" y2="40.59"/>
      <polygon points="28.33 22.97 8.88 40.59 25.43 20.22 28.33 22.97"/>
      <line x1="68.86" y1="81.59" x2="86.86" y2="70.59"/>
      <polygon points="67.81 79.89 86.86 70.59 69.9 83.3 67.81 79.89" fill="#231f20"/>
      <line x1="108.86" y1="82.59" x2="85.86" y2="68.59"/>
      <polygon points="107.82 84.3 85.86 68.59 109.9 80.89 107.82 84.3" fill="#231f20"/>
      <line x1="138.86" y1="66.59" x2="108.86" y2="83.59"/>
      <polygon points="139.84 68.33 108.86 83.59 137.87 64.85 139.84 68.33" fill="#231f20"/>
    </g>
  </g>
</svg>
