<svg id="sun" xmlns="http://www.w3.org/2000/svg" viewBox="0 0 207.43 203.43">
  <title>sunny</title>
  <path d="M125,81.23A43.77,43.77,0,1,1,81.23,125,43.82,43.82,0,0,1,125,81.23m0-3A46.77,46.77,0,1,0,171.77,125,46.77,46.77,0,0,0,125,78.23Z" transform="translate(-21.28 -22.28)"/>
  <path d="M183.81,123.79l1.06.21c7.31,1.48,14.51,2.85,21.57,4.39s14.11,3.33,21.34,5.21l-1.47,1.16.38-21.52,1,.79-22.19,4.84C198.33,120.42,191.07,122.07,183.81,123.79Zm-2,.47,1.06-.26c7.31-1.79,14.6-3.66,22-5.63l22.45-5.92,1-.26,0,1,.38,21.52,0,1.49-1.5-.33c-7.65-1.7-15.48-3.5-23.29-5.55C196.44,128.41,189.07,126.29,181.8,124.26Z" transform="translate(-21.28 -22.28)" fill="#231f20"/>
  <path d="M68.2,124.26c-7.26,2-14.63,4.15-22.12,6.11-7.81,2-15.64,3.85-23.29,5.55l-1.5.33,0-1.49.38-21.52,0-1,1,.26,22.45,5.92c7.4,2,14.69,3.84,22,5.63Zm-2-.47c-7.26-1.72-14.52-3.36-21.69-4.92L22.31,114l1-.79.38,21.52-1.47-1.16c7.23-1.88,14.28-3.67,21.34-5.21s14.26-2.92,21.57-4.39Z" transform="translate(-21.28 -22.28)" fill="#231f20"/>
  <path d="M125.79,67.19l.21-1.06c1.48-7.31,2.85-14.51,4.39-21.57s3.33-14.11,5.21-21.34l1.16,1.47-21.52-.38.79-1,4.84,22.19C122.42,52.67,124.07,59.93,125.79,67.19Zm.47,2L126,68.14c-1.79-7.31-3.66-14.6-5.63-22l-5.92-22.45-.26-1,1,0,21.52-.38,1.49,0-.33,1.5c-1.7,7.65-3.5,15.48-5.55,23.29C130.41,54.56,128.29,61.93,126.26,69.2Z" transform="translate(-21.28 -22.28)" fill="#231f20"/>
  <path d="M125.76,178.8c2,7.26,4.15,14.63,6.11,22.12,2,7.81,3.85,15.64,5.55,23.29l.33,1.5-1.49,0-21.52-.38-1,0,.26-1,5.92-22.45c2-7.4,3.84-14.69,5.63-22Zm-.47,2c-1.72,7.26-3.36,14.52-4.92,21.69l-4.84,22.19-.79-1,21.52-.38-1.16,1.47c-1.88-7.23-3.67-14.28-5.21-21.34s-2.92-14.26-4.39-21.57Z" transform="translate(-21.28 -22.28)" fill="#231f20"/>
  <path d="M51,73.65c3.42-3.66,6.89-7.36,10.45-11,3.83-3.92,7.73-7.75,11.59-11.46l1.61-1.55.7,2.07L87.07,86.18l.48,1.42-1.38-.53c-11.54-4.4-22.83-8.85-34-13Zm2.22.79C64.56,78.38,75.72,82,86.65,85.75l-.9.9-13-34,2.31.52c-3.44,3.58-6.84,7.06-10.3,10.43s-7,6.68-10.63,10Z" transform="translate(-21.28 -22.28)" fill="#231f20"/>
  <path d="M175.56,196.73l.8-.87c3.35-3.62,6.66-7.17,10-10.63s6.85-6.86,10.43-10.3l.52,2.31-34-13,.9-.9C168,174.28,171.62,185.44,175.56,196.73Zm.79,2.22-.42-1.14c-4.15-11.16-8.6-22.45-13-34l-.53-1.38,1.42.48,34.47,11.68,2.07.7-1.55,1.61c-3.71,3.86-7.54,7.76-11.46,11.59C183.71,192.06,180,195.53,176.35,199Z" transform="translate(-21.28 -22.28)" fill="#231f20"/>
  <path d="M73.65,199c-3.66-3.42-7.36-6.89-11-10.45-3.92-3.83-7.75-7.73-11.46-11.59l-1.55-1.61,2.07-.7,34.47-11.68,1.42-.48-.53,1.38c-4.4,11.54-8.85,22.83-13,34Zm.79-2.22c3.94-11.29,7.61-22.45,11.31-33.38l.9.9-34,13,.52-2.31c3.58,3.44,7.06,6.84,10.43,10.3s6.68,7,10,10.63Z" transform="translate(-21.28 -22.28)" fill="#231f20"/>
  <path d="M196.73,74.44l-.87-.8c-3.62-3.35-7.17-6.66-10.63-10s-6.86-6.85-10.3-10.43l2.31-.52-13,34-.9-.9C174.28,82,185.44,78.38,196.73,74.44Zm2.22-.79-1.14.42c-11.16,4.15-22.45,8.6-34,13l-1.38.53.48-1.42,11.68-34.47.7-2.07,1.61,1.55c3.86,3.71,7.76,7.54,11.59,11.46C192.06,66.29,195.53,70,199,73.65Z" transform="translate(-21.28 -22.28)" fill="#231f20"/>
</svg>
