<?xml version="1.0" encoding="utf-8"?>
<!-- Generator: Adobe Illustrator 19.0.0, SVG Export Plug-In . SVG Version: 6.00 Build 0)  -->
<svg version="1.1" id="Layer_1" xmlns="http://www.w3.org/2000/svg" xmlns:xlink="http://www.w3.org/1999/xlink" x="0px" y="0px"
	 viewBox="0 0 200 196" enable-background="new 0 0 200 196" xml:space="preserve">
<path id="XMLID_4_" stroke="#FFFFFF" stroke-miterlimit="10" d="M116.9,5.9C100.5,0.5,83.7,0,68,3.5c14.3-2.7,29.5-2,44.3,2.9
	C159,21.8,184.3,72,169,118.6s-65.6,72-112.2,56.6c-26-8.6-45.4-28-54.8-51.6c9.2,25.7,29.7,47.1,57.7,56.2
	c48.1,15.8,99.8-10.3,115.6-58.4C191.1,73.4,164.9,21.7,116.9,5.9z"/>
<path id="XMLID_5_" d="M95.8,1.5c34.7,22.5,46.9,69.6,26.7,109.2c-20,39.4-64.9,57.4-103.4,43c5.4,2.4,11.1,4.3,17.1,5.6
	c46.1,9.9,91.4-19.4,101.3-65.5C145.6,56.4,127.6,19.3,95.8,1.5z"/>
<g id="XMLID_3_">
	
		<rect id="XMLID_1_" x="91.3" y="52.4" transform="matrix(0.7071 0.7071 -0.7071 0.7071 71.7436 -52.4488)" width="15.9" height="15.9"/>
	<polygon id="XMLID_2_" fill="#FFFFFF" points="99.2,71 97.2,61.4 88,59.8 97.4,58 99.2,48.5 100.9,58.1 110.4,59.8 100.9,61.6 	"/>
</g>
<g id="XMLID_6_">
	
		<rect id="XMLID_8_" x="68.8" y="5.2" transform="matrix(0.7071 0.7071 -0.7071 0.7071 31.7301 -50.4437)" width="15.9" height="15.9"/>
	<polygon id="XMLID_7_" fill="#FFFFFF" points="76.8,23.7 74.8,14.1 65.5,12.5 74.9,10.7 76.8,1.3 78.5,10.8 88,12.5 78.5,14.3 	"/>
</g>
<g id="XMLID_9_">
	
		<rect id="XMLID_11_" x="38.2" y="35.9" transform="matrix(0.7071 0.7071 -0.7071 0.7071 44.5213 -19.8107)" width="15.9" height="15.9"/>
	<polygon id="XMLID_10_" fill="#FFFFFF" points="46.2,54.4 44.2,44.9 35,43.2 44.4,41.5 46.2,32 47.9,41.6 57.4,43.2 47.9,45.1 	"/>
</g>
<g id="XMLID_12_">
	
		<rect id="XMLID_14_" x="179.9" y="176.9" transform="matrix(0.7071 0.7071 -0.7071 0.7071 185.6836 -78.7069)" width="15.9" height="15.9"/>
	<polygon id="XMLID_13_" fill="#FFFFFF" points="187.8,195.4 185.9,185.8 176.6,184.2 186,182.4 187.8,173 189.6,182.5 199.1,184.2 
		189.6,186 	"/>
</g>
<g id="XMLID_15_">
	
		<rect id="XMLID_17_" x="66" y="98.5" transform="matrix(0.7071 0.7071 -0.7071 0.7071 96.8839 -21.0996)" width="15.9" height="15.9"/>
	<polygon id="XMLID_16_" fill="#FFFFFF" points="73.9,117 71.9,107.4 62.7,105.8 72.1,104.1 73.9,94.6 75.6,104.2 85.1,105.8 
		75.6,107.7 	"/>
</g>
<g id="XMLID_18_">
	
		<rect id="XMLID_20_" x="59.8" y="68.8" transform="matrix(0.7071 0.7071 -0.7071 0.7071 71.9137 -24.5095)" width="11.5" height="11.5"/>
	<polygon id="XMLID_19_" fill="#FFFFFF" points="65.5,82.2 64.1,75.3 57.4,74.1 64.2,72.9 65.5,66 66.8,72.9 73.7,74.1 66.8,75.5 	
		"/>
</g>
<g id="XMLID_21_">
	
		<rect id="XMLID_23_" x="106" y="90.5" transform="matrix(0.7071 0.7071 -0.7071 0.7071 100.7874 -50.8563)" width="11.5" height="11.5"/>
	<polygon id="XMLID_22_" fill="#FFFFFF" points="111.8,103.9 110.3,97 103.7,95.8 110.5,94.5 111.8,87.7 113,94.6 119.9,95.8 
		113,97.1 	"/>
</g>
<g id="XMLID_24_">
	
		<rect id="XMLID_26_" x="51.7" y="133.8" transform="matrix(0.7071 0.7071 -0.7071 0.7071 115.5203 0.2821)" width="11.5" height="11.5"/>
	<polygon id="XMLID_25_" fill="#FFFFFF" points="57.4,147.3 56,140.3 49.3,139.1 56.1,137.9 57.4,131 58.7,138 65.5,139.1 
		58.7,140.5 	"/>
</g>
<g id="XMLID_30_">
	
		<rect id="XMLID_32_" x="170.9" y="152.1" transform="matrix(0.7071 0.7071 -0.7071 0.7071 163.3376 -78.6733)" width="11.5" height="11.5"/>
	<polygon id="XMLID_31_" fill="#FFFFFF" points="176.6,165.5 175.2,158.6 168.5,157.4 175.3,156.1 176.6,149.3 177.9,156.2 
		184.8,157.4 177.9,158.7 	"/>
</g>
<g id="XMLID_33_">
	
		<rect id="XMLID_35_" x="23.6" y="110.3" transform="matrix(0.7071 0.7071 -0.7071 0.7071 91.8888 12.6992)" width="14" height="14"/>
	<polygon id="XMLID_34_" fill="#FFFFFF" points="30.6,126.6 28.9,118.2 20.7,116.7 29,115.2 30.6,106.8 32.1,115.3 40.5,116.7 
		32.1,118.4 	"/>
</g>
</svg>
