<svg xmlns="http://www.w3.org/2000/svg">
	<!--Sunny icon-->
	<symbol id="sun" viewBox="0 0 207.43 203.43">
		<title>Sunny</title>
		<path d="M125,81.23A43.77,43.77,0,1,1,81.23,125,43.82,43.82,0,0,1,125,81.23m0-3A46.77,46.77,0,1,0,171.77,125,46.77,46.77,0,0,0,125,78.23Z" transform="translate(-21.28 -22.28)"/>
		<path d="M183.81,123.79l1.06.21c7.31,1.48,14.51,2.85,21.57,4.39s14.11,3.33,21.34,5.21l-1.47,1.16.38-21.52,1,.79-22.19,4.84C198.33,120.42,191.07,122.07,183.81,123.79Zm-2,.47,1.06-.26c7.31-1.79,14.6-3.66,22-5.63l22.45-5.92,1-.26,0,1,.38,21.52,0,1.49-1.5-.33c-7.65-1.7-15.48-3.5-23.29-5.55C196.44,128.41,189.07,126.29,181.8,124.26Z" transform="translate(-21.28 -22.28)"/>
		<path d="M68.2,124.26c-7.26,2-14.63,4.15-22.12,6.11-7.81,2-15.64,3.85-23.29,5.55l-1.5.33,0-1.49.38-21.52,0-1,1,.26,22.45,5.92c7.4,2,14.69,3.84,22,5.63Zm-2-.47c-7.26-1.72-14.52-3.36-21.69-4.92L22.31,114l1-.79.38,21.52-1.47-1.16c7.23-1.88,14.28-3.67,21.34-5.21s14.26-2.92,21.57-4.39Z" transform="translate(-21.28 -22.28)"/>
		<path d="M125.79,67.19l.21-1.06c1.48-7.31,2.85-14.51,4.39-21.57s3.33-14.11,5.21-21.34l1.16,1.47-21.52-.38.79-1,4.84,22.19C122.42,52.67,124.07,59.93,125.79,67.19Zm.47,2L126,68.14c-1.79-7.31-3.66-14.6-5.63-22l-5.92-22.45-.26-1,1,0,21.52-.38,1.49,0-.33,1.5c-1.7,7.65-3.5,15.48-5.55,23.29C130.41,54.56,128.29,61.93,126.26,69.2Z" transform="translate(-21.28 -22.28)" />
		<path d="M125.76,178.8c2,7.26,4.15,14.63,6.11,22.12,2,7.81,3.85,15.64,5.55,23.29l.33,1.5-1.49,0-21.52-.38-1,0,.26-1,5.92-22.45c2-7.4,3.84-14.69,5.63-22Zm-.47,2c-1.72,7.26-3.36,14.52-4.92,21.69l-4.84,22.19-.79-1,21.52-.38-1.16,1.47c-1.88-7.23-3.67-14.28-5.21-21.34s-2.92-14.26-4.39-21.57Z" transform="translate(-21.28 -22.28)" />
		<path d="M51,73.65c3.42-3.66,6.89-7.36,10.45-11,3.83-3.92,7.73-7.75,11.59-11.46l1.61-1.55.7,2.07L87.07,86.18l.48,1.42-1.38-.53c-11.54-4.4-22.83-8.85-34-13Zm2.22.79C64.56,78.38,75.72,82,86.65,85.75l-.9.9-13-34,2.31.52c-3.44,3.58-6.84,7.06-10.3,10.43s-7,6.68-10.63,10Z" transform="translate(-21.28 -22.28)" />
		<path d="M175.56,196.73l.8-.87c3.35-3.62,6.66-7.17,10-10.63s6.85-6.86,10.43-10.3l.52,2.31-34-13,.9-.9C168,174.28,171.62,185.44,175.56,196.73Zm.79,2.22-.42-1.14c-4.15-11.16-8.6-22.45-13-34l-.53-1.38,1.42.48,34.47,11.68,2.07.7-1.55,1.61c-3.71,3.86-7.54,7.76-11.46,11.59C183.71,192.06,180,195.53,176.35,199Z" transform="translate(-21.28 -22.28)" />
		<path d="M73.65,199c-3.66-3.42-7.36-6.89-11-10.45-3.92-3.83-7.75-7.73-11.46-11.59l-1.55-1.61,2.07-.7,34.47-11.68,1.42-.48-.53,1.38c-4.4,11.54-8.85,22.83-13,34Zm.79-2.22c3.94-11.29,7.61-22.45,11.31-33.38l.9.9-34,13,.52-2.31c3.58,3.44,7.06,6.84,10.43,10.3s6.68,7,10,10.63Z" transform="translate(-21.28 -22.28)" />
		<path d="M196.73,74.44l-.87-.8c-3.62-3.35-7.17-6.66-10.63-10s-6.86-6.85-10.3-10.43l2.31-.52-13,34-.9-.9C174.28,82,185.44,78.38,196.73,74.44Zm2.22-.79-1.14.42c-11.16,4.15-22.45,8.6-34,13l-1.38.53.48-1.42,11.68-34.47.7-2.07,1.61,1.55c3.86,3.71,7.76,7.54,11.59,11.46C192.06,66.29,195.53,70,199,73.65Z" transform="translate(-21.28 -22.28)" />
	</symbol>

	<!--Partly Cloudy icon-->
	<symbol id="partly-cloudy" viewBox="0 0 228.88 202.64">
		<defs>
			<clipPath id="clip-path" transform="translate(-11.64 -15.57)">
				<rect x="2" y="52" width="250" height="250" fill="none"/>
			</clipPath>
		</defs>
		<title>Partly Cloudy</title>
		<g>
			<path d="M108.86,91.67A62,62,0,0,1,123,89a64.25,64.25,0,0,1,43.38,13.31A62.5,62.5,0,0,0,128.5,88.5,59.37,59.37,0,0,0,108.86,91.67Z" transform="translate(-11.64 -15.57)" stroke-miterlimit="10" stroke-width="2"/>
			<path d="M62.5,158.5c-.2-31.84,20.29-58,46.36-66.83C81.33,100.22,61.08,127.32,62.5,158.5Z" transform="translate(-11.64 -15.57)" stroke-miterlimit="10" stroke-width="2"/>
		    <path d="M166.38,102.31A70.93,70.93,0,0,1,191.5,142.5,67.21,67.21,0,0,0,166.38,102.31Z" transform="translate(-11.64 -15.57)" stroke-miterlimit="10" stroke-width="2"/>
		</g>
		<path d="M120.3,73.65l.23-1c2.09-9.49,4.1-18.86,6.26-28.12s4.55-18.5,7-27.92l1.23,1.51-33.25.85.71-1,8.9,28.15C114.29,55.2,117.26,64.43,120.3,73.65Zm.65,2-.35-1c-3.13-9.28-6.34-18.55-9.64-27.9L101,18.41l-.34-1,1.05-.05L135,15.65l1.61-.08-.38,1.6C133.87,27,131.46,37,128.82,47,126.28,56.64,123.58,66.19,121,75.63Z" transform="translate(-11.64 -15.57)"/>
		<path d="M193.6,122.8l1.07-.13c7.4-.91,14.66-1.89,21.85-2.66s14.44-1.31,21.9-1.81l-1,1.56-6.45-20.53,1.2.43-19.52,11.62C206.31,115,199.94,118.87,193.6,122.8Zm-1.75,1.08.92-.58c6.36-4,12.69-8.1,19.09-12.3l19.42-12.72.85-.56.35,1L239.65,119l.5,1.4-1.52.16c-7.79.81-15.79,1.58-23.85,2.11C207,123.18,199.38,123.51,191.85,123.88Z" transform="translate(-11.64 -15.57)"/>
		<path d="M57.62,137.1c-6,3.14-12,6.38-18.25,9.5-6.5,3.27-13.07,6.31-19.49,9.22l-1.46.66-.25-1.53L14.72,133.7l-.17-1,1,.11L36.28,135c6.83.74,13.54,1.42,20.25,2Zm-2.06-.16c-6.64-.52-13.28-1-19.81-1.36l-20.32-1.22.85-.93,4.28,21.09-1.71-.87c6-3,11.79-5.87,17.67-8.5s11.91-5.15,18-7.77Z" transform="translate(-11.64 -15.57)"/>
		<path d="M154.65,79.67l.72-.8c5.34-6,10.55-11.93,15.84-17.7S182,49.75,187.6,44L188,46l-26.16-13.4,1.1-.57-4.24,24.1C157.27,63.86,155.93,71.75,154.65,79.67Zm-.33,2.07.16-1.08c1.22-8,2.37-16.06,3.48-24.22l3.41-24.69.14-1,1,.45L189,43.75l1.49.71-1.14,1.24c-5.7,6.19-11.57,12.48-17.62,18.65C166,70.27,160.09,76,154.31,81.73Z" transform="translate(-11.64 -15.57)"/>
		<path d="M182.88,94.75l1.05-.33c4.68-1.49,9.24-3,13.79-4.3s9.18-2.47,14-3.61L211,88.45,199,70.58h1.22l-8.89,12.29C188.5,86.74,185.68,90.73,182.88,94.75Zm-1.2,1.75.62-.93c2.78-4.16,5.52-8.38,8.28-12.71L199,69.74l.57-.89.65.87L213.05,87l1.07,1.43-1.77.51c-5.1,1.48-10.38,2.95-15.74,4.24C191.59,94.39,186.58,95.45,181.68,96.5Z" transform="translate(-11.64 -15.57)" />
		<path d="M90.61,81.1l-.4-1c-2.77-6.93-5.57-13.7-8.15-20.45s-5-13.63-7.34-20.71l1.77.59L58.29,51l.11-1.27L74.61,65.65C79.84,70.79,85.2,76,90.61,81.1Zm1.49,1.42-.8-.74c-5.5-5.13-11.07-10.2-16.77-15.32L57.29,50.92l-.75-.68.87-.59L75.19,37.54l1.23-.84L77,38.14c2.77,7.33,5.55,14.86,8.12,22.52C87.56,68,89.82,75.33,92.11,82.51Z" transform="translate(-11.64 -15.57)" />
		<path d="M65.69,104.77l-.82-.69c-6.52-5.47-13-10.78-19.26-16.18S33.21,76.89,27,71.1l1.8-.29L17.7,89.27l-.46-1.2,24.4,8.51C49.56,99.36,57.61,102.1,65.69,104.77Zm1.94.64-1-.34c-8.15-2.64-16.33-5.2-24.66-7.72L16.73,89.65l-1-.3.5-.91L26.73,69.64l.69-1.25,1.1,1c6.7,5.82,13.53,11.82,20.21,18.05C55.19,93.4,61.43,99.48,67.64,105.42Z" transform="translate(-11.64 -15.57)" />
		<g clip-path="url(#clip-path)">
			<line x1="1.84" y1="177.86" x2="23.23" y2="199.26"/>
			<polygon points="3.25 176.44 23.23 199.26 0.42 179.27 3.25 176.44"/>
			<line x1="22.88" y1="198.93" x2="45.88" y2="188.93"/>
			<polygon points="22.08 197.1 45.88 188.93 23.67 200.77 22.08 197.1"/>
			<line x1="26.88" y1="139.93" x2="45.88" y2="151.93"/>
			<polygon points="27.95 138.24 45.88 151.93 25.81 141.62 27.95 138.24"/>
		    <line x1="68.88" y1="128.93" x2="39.88" y2="147.93"/>
			<polygon points="69.97 130.6 39.88 147.93 67.78 127.26 69.97 130.6"/>
			<line x1="45.88" y1="188.93" x2="69.88" y2="199.93"/>
			<polygon points="46.71 187.11 69.88 199.93 45.04 190.75 46.71 187.11"/>
			<line x1="68.88" y1="128.93" x2="79.88" y2="134.93"/>
			<polygon points="69.83 127.18 79.88 134.93 67.92 130.69 69.83 127.18"/>
			<line x1="73.88" y1="140.93" x2="92.88" y2="120.93"/>
			<polygon points="72.43 139.56 92.88 120.93 75.33 142.31 72.43 139.56"/>
			<line x1="92.88" y1="120.93" x2="125.88" y2="133.93"/>
			<polygon points="93.61 119.07 125.88 133.93 92.14 122.79 93.61 119.07"/>
			<line x1="117.88" y1="129.93" x2="133.88" y2="119.93"/>
			<polygon points="116.82 128.24 133.88 119.93 118.94 131.63 116.82 128.24"/>
			<line x1="133.88" y1="119.93" x2="162.88" y2="141.93"/>
			<polygon points="135.09 118.34 162.88 141.93 132.67 121.53 135.09 118.34"/>
			<line x1="128.88" y1="191.93" x2="165.88" y2="200.93"/>
			<polygon points="129.35 189.99 165.88 200.93 128.41 193.88 129.35 189.99"/>
			<line x1="188.88" y1="171.93" x2="165.88" y2="200.93"/>
			<polygon points="190.44 173.18 165.88 200.93 187.31 170.69 190.44 173.18"/>
			<line x1="154.88" y1="135.93" x2="193.88" y2="120.93"/>
			<polygon points="154.16 134.07 193.88 120.93 155.59 137.8 154.16 134.07"/>
			<line x1="180.88" y1="181.93" x2="206.88" y2="190.93"/>
			<polygon points="181.53 180.04 206.88 190.93 180.22 183.82 181.53 180.04"/>
			<line x1="193.88" y1="120.93" x2="224.88" y2="145.93"/>
			<polygon points="195.13 119.38 224.88 145.93 192.62 122.49 195.13 119.38"/>
			<line x1="206.58" y1="191.66" x2="216.88" y2="170.93"/>
			<polygon points="204.79 190.78 216.88 170.93 208.38 192.55 204.79 190.78"/>
			<line x1="224.88" y1="145.93" x2="228.88" y2="162.93"/>
			<polygon points="226.82 145.47 228.88 162.93 222.93 146.39 226.82 145.47"/>
			<line x1="212.88" y1="178.93" x2="228.88" y2="162.93"/>
			<polygon points="211.46 177.52 228.88 162.93 214.29 180.35 211.46 177.52"/>
			<line x1="1.88" y1="177.93" x2="8.88" y2="158.93"/>
			<polygon points="0 177.24 8.88 158.93 3.75 178.62 0 177.24"/>
			<line x1="26.88" y1="139.93" x2="8.88" y2="158.93"/>
			<polygon points="28.33 141.31 8.88 158.93 25.43 138.56 28.33 141.31"/>
			<line x1="68.86" y1="199.93" x2="86.86" y2="188.93"/>
			<polygon points="67.81 198.22 86.86 188.93 69.9 201.64 67.81 198.22"/>
			<line x1="108.86" y1="200.93" x2="85.86" y2="186.93"/>
			<polygon points="107.82 202.64 85.86 186.93 109.9 199.22 107.82 202.64"/>
			<line x1="138.86" y1="184.93" x2="108.86" y2="201.93"/>
			<polygon points="139.84 186.67 108.86 201.93 137.87 183.19 139.84 186.67"/>
		</g>
	</symbol>

	<!--Cloudy icon-->
	<symbol id="cloud" viewBox="0 0 228.88 84.3">
		<title>Cloudy</title>
		<g>
			<g>
			      <line x1="1.84" y1="59.52" x2="23.23" y2="80.92"/>
			      <polygon points="3.25 58.1 23.23 80.92 0.42 60.93 3.25 58.1"/>
			</g>
			<g>
			      <line x1="22.88" y1="80.59" x2="45.88" y2="70.59"/>
			      <polygon points="22.08 78.76 45.88 70.59 23.67 82.43 22.08 78.76"/>
			</g>
			<g>
			      <line x1="26.88" y1="21.59" x2="45.88" y2="33.59"/>
			      <polygon points="27.95 19.9 45.88 33.59 25.81 23.28 27.95 19.9"/>
			</g>
			<g>
			      <line x1="68.88" y1="10.59" x2="39.88" y2="29.59"/>
			      <polygon points="69.97 12.27 39.88 29.59 67.78 8.92 69.97 12.27"/>
			</g>
			<g>
			      <line x1="45.88" y1="70.59" x2="69.88" y2="81.59"/>
			      <polygon points="46.71 68.78 69.88 81.59 45.04 72.41 46.71 68.78"/>
			</g>
			<g>
			      <line x1="68.88" y1="10.59" x2="79.88" y2="16.59"/>
			      <polygon points="69.83 8.84 79.88 16.59 67.92 12.35 69.83 8.84"/>
		    </g>
		    <g>
			      <line x1="73.88" y1="22.59" x2="92.88" y2="2.59"/>
			      <polygon points="72.43 21.22 92.88 2.59 75.33 23.97 72.43 21.22"/>
		    </g>
		    <g>
			      <line x1="92.88" y1="2.59" x2="125.88" y2="15.59"/>
			      <polygon points="93.61 0.73 125.88 15.59 92.14 4.45 93.61 0.73"/>
		    </g>
		    <g>
			      <line x1="117.88" y1="11.59" x2="133.88" y2="1.59"/>
			      <polygon points="116.82 9.9 133.88 1.59 118.94 13.29 116.82 9.9"/>
		    </g>
		    <g>
			      <line x1="133.88" y1="1.59" x2="162.88" y2="23.59"/>
			      <polygon points="135.09 0 162.88 23.59 132.67 3.19 135.09 0"/>
		    </g>
		    <g>
			      <line x1="128.88" y1="73.59" x2="165.88" y2="82.59"/>
			      <polygon points="129.35 71.65 165.88 82.59 128.4 75.54 129.35 71.65"/>
		    </g>
		    <g>
			      <line x1="188.88" y1="53.59" x2="165.88" y2="82.59"/>
			      <polygon points="190.44 54.84 165.88 82.59 187.31 52.35 190.44 54.84"/>
		    </g>
		    <g>
			      <line x1="154.88" y1="17.59" x2="193.88" y2="2.59"/>
			      <polygon points="154.16 15.73 193.88 2.59 155.59 19.46 154.16 15.73"/>
		    </g>
		    <g>
			      <line x1="180.88" y1="63.59" x2="206.88" y2="72.59"/>
			      <polygon points="181.53 61.7 206.88 72.59 180.22 65.48 181.53 61.7"/>
		    </g>
		    <g>
			      <line x1="193.88" y1="2.59" x2="224.88" y2="27.59"/>
			      <polygon points="195.13 1.04 224.88 27.59 192.62 4.15 195.13 1.04"/>
		    </g>
		    <g>
			      <line x1="206.58" y1="73.33" x2="216.88" y2="52.59"/>
			      <polygon points="204.79 72.44 216.88 52.59 208.38 74.22 204.79 72.44"/>
		    </g>
		    <g>
			      <line x1="224.88" y1="27.59" x2="228.88" y2="44.59"/>
			      <polygon points="226.82 27.14 228.88 44.59 222.93 28.05 226.82 27.14"/>
		    </g>
		    <g>
			      <line x1="212.88" y1="60.59" x2="228.88" y2="44.59"/>
			      <polygon points="211.46 59.18 228.88 44.59 214.29 62.01 211.46 59.18"/>
			</g>
		    <g>
			      <line x1="1.88" y1="59.59" x2="8.88" y2="40.59"/>
			      <polygon points="0 58.9 8.88 40.59 3.75 60.28 0 58.9"/>
			</g>
			<g>
			      <line x1="26.88" y1="21.59" x2="8.88" y2="40.59"/>
			      <polygon points="28.33 22.97 8.88 40.59 25.43 20.22 28.33 22.97"/>
			</g>
			<g>
			      <line x1="68.86" y1="81.59" x2="86.86" y2="70.59"/>
			      <polygon points="67.81 79.89 86.86 70.59 69.9 83.3 67.81 79.89"/>
			</g>
			<g>
			      <line x1="108.86" y1="82.59" x2="85.86" y2="68.59"/>
			      <polygon points="107.82 84.3 85.86 68.59 109.9 80.89 107.82 84.3"/>
			</g>
			<g>
			      <line x1="138.86" y1="66.59" x2="108.86" y2="83.59"/>
			      <polygon points="139.84 68.33 108.86 83.59 137.87 64.85 139.84 68.33"/>
			</g>
		</g>
	</symbol>

	<!--Rain icon-->
	<symbol id="rain" viewBox="0 0 228.88 216.74">
		<defs>
			<clipPath id="clip-path" transform="translate(-9.64 -11.91)">
			    <rect y="-70" width="250" height="250" fill="none"/>
			</clipPath>
		</defs>
		<title>Rainy</title>
		<g>
			<g>
				<path d="M38.65,100.5c.24,1.83.4,3.67.6,5.5s.33,3.67.45,5.5A29.08,29.08,0,0,1,40,117a20.41,20.41,0,0,1-.44,2.75,13.33,13.33,0,0,1-.91,2.75l-.07.15h-.16l-.07-.15a13.33,13.33,0,0,1-.91-2.75A20.41,20.41,0,0,1,37,117a29.08,29.08,0,0,1,.3-5.5q.19-2.75.45-5.5c.2-1.83.36-3.67.6-5.5l0-.15h.26Z"/>
			    <path d="M56.65,83.5c.24,3.67.4,7.33.6,11l.45,11c.13,3.67.52,7.33.3,11a66,66,0,0,1-1.35,11l0,.15h-.23l0-.15a66,66,0,0,1-1.35-11c-.22-3.67.17-7.33.3-11l.45-11c.2-3.67.36-7.33.6-11v-.15h.28Z"/>
			    <path d="M38.65,144.5c.24.92.4,1.83.6,2.75s.33,1.83.45,2.75a7.39,7.39,0,0,1,.3,2.75,5.71,5.71,0,0,1-.44,1.38,4.91,4.91,0,0,1-.91,1.38l-.14.15h0l-.14-.15a4.91,4.91,0,0,1-.91-1.37,5.71,5.71,0,0,1-.44-1.37,7.39,7.39,0,0,1,.3-2.75q.19-1.38.45-2.75c.2-.92.36-1.83.6-2.75l0-.15h.22Z"/>
			    <path d="M38.65,173.5c.24,2.92.4,5.83.6,8.75L39.7,191a73.06,73.06,0,0,1,.3,8.75,42.37,42.37,0,0,1-1.35,8.75l0,.15h-.21l0-.15A42.37,42.37,0,0,1,37,199.75a73.06,73.06,0,0,1,.3-8.75l.45-8.75c.2-2.92.36-5.83.6-8.75v-.15h.28Z"/>
			    <path d="M56.65,154.5c.24,2.83.4,5.67.6,8.5s.33,5.67.45,8.5A69,69,0,0,1,58,180a40.07,40.07,0,0,1-1.35,8.5l0,.15h-.21l0-.15A40.07,40.07,0,0,1,55,180a69,69,0,0,1,.3-8.5q.19-4.25.45-8.5c.2-2.83.36-5.67.6-8.5v-.15h.27Z"/>
			    <path d="M79.65,108.5,80,130l.2,21.51c0,7.17.35,14.34,0,21.5s-.69,14.33-1.6,21.48l0,.15h-.27l0-.15c-.74-7.18-1-14.35-1.1-21.52s.34-14.33.55-21.5L78.5,130l.85-21.49v-.15h.29Z"/>
			    <path d="M93.65,131.5c.24,2.92.4,5.83.6,8.75L94.7,149a73.05,73.05,0,0,1,.3,8.75,42.37,42.37,0,0,1-1.35,8.75l0,.15h-.21l0-.15A42.37,42.37,0,0,1,92,157.75a73.05,73.05,0,0,1,.3-8.75l.45-8.75c.2-2.92.36-5.83.6-8.75v-.15h.28Z"/>
			    <path d="M93.65,190.5c.24,1.83.4,3.67.6,5.5s.33,3.67.45,5.5A29.08,29.08,0,0,1,95,207a20.41,20.41,0,0,1-.44,2.75,13.32,13.32,0,0,1-.91,2.75l-.07.15h-.16l-.07-.15a13.32,13.32,0,0,1-.91-2.75A20.41,20.41,0,0,1,92,207a29.08,29.08,0,0,1,.3-5.5q.19-2.75.45-5.5c.2-1.83.36-3.67.6-5.5l0-.15h.26Z"/>
			    <path d="M127.65,109.5c.24,2.25.4,4.5.6,6.75s.33,4.5.45,6.75a43.55,43.55,0,0,1,.3,6.75,25.85,25.85,0,0,1-1.35,6.75l-.06.15h-.19l-.06-.15a25.85,25.85,0,0,1-1.35-6.75,43.55,43.55,0,0,1,.3-6.75q.19-3.37.45-6.75c.2-2.25.36-4.5.6-6.75l0-.15h.27Z"/>
			    <path d="M201.65,110.5c.24,1.83.4,3.67.6,5.5s.33,3.67.45,5.5a29.08,29.08,0,0,1,.3,5.5,20.41,20.41,0,0,1-.44,2.75,13.33,13.33,0,0,1-.91,2.75l-.07.15h-.16l-.07-.15a13.33,13.33,0,0,1-.91-2.75A20.41,20.41,0,0,1,200,127a29.08,29.08,0,0,1,.3-5.5q.19-2.75.45-5.5c.2-1.83.36-3.67.6-5.5l0-.15h.26Z"/>
			    <path d="M183.65,121.5c.24,3.67.4,7.33.6,11l.45,11c.13,3.67.52,7.33.3,11a66,66,0,0,1-1.35,11l0,.15h-.23l0-.15a66,66,0,0,1-1.35-11c-.22-3.67.17-7.33.3-11l.45-11c.2-3.67.36-7.33.6-11v-.15h.28Z"/>
			    <path d="M201.65,154.5c.24.92.4,1.83.6,2.75s.33,1.83.45,2.75a7.39,7.39,0,0,1,.3,2.75,5.71,5.71,0,0,1-.44,1.38,4.91,4.91,0,0,1-.91,1.38l-.14.15h0l-.14-.15a4.91,4.91,0,0,1-.91-1.37,5.71,5.71,0,0,1-.44-1.37,7.39,7.39,0,0,1,.3-2.75q.19-1.38.45-2.75c.2-.92.36-1.83.6-2.75l0-.15h.22Z"/>
			    <path d="M201.65,183.5c.24,2.92.4,5.83.6,8.75l.45,8.75a73.06,73.06,0,0,1,.3,8.75,42.36,42.36,0,0,1-1.35,8.75l0,.15h-.21l0-.15a42.36,42.36,0,0,1-1.35-8.75,73.06,73.06,0,0,1,.3-8.75l.45-8.75c.2-2.92.36-5.83.6-8.75v-.15h.28Z"/>
			    <path d="M183.65,183.5c.24,1.25.4,2.5.6,3.75s.33,2.5.45,3.75a13.62,13.62,0,0,1,.3,3.75,9.92,9.92,0,0,1-.44,1.88,7.28,7.28,0,0,1-.91,1.88l-.1.15h-.09l-.1-.15a7.28,7.28,0,0,1-.91-1.87,9.92,9.92,0,0,1-.44-1.87,13.62,13.62,0,0,1,.3-3.75q.19-1.87.45-3.75c.2-1.25.36-2.5.6-3.75l0-.15h.24Z"/>
			    <path d="M160.65,118.5,161.5,140l.7,21.49c.21,7.17.69,14.33.55,21.5s-.36,14.34-1.1,21.52l0,.15h-.27l0-.15c-.91-7.16-1.32-14.32-1.6-21.48s0-14.34,0-21.5L160,140l.35-21.51v-.15h.29Z"/>
			    <path d="M146.65,141.5c.24,2.92.4,5.83.6,8.75l.45,8.75a73.06,73.06,0,0,1,.3,8.75,42.36,42.36,0,0,1-1.35,8.75l0,.15h-.21l0-.15a42.36,42.36,0,0,1-1.35-8.75,73.06,73.06,0,0,1,.3-8.75l.45-8.75c.2-2.92.36-5.83.6-8.75v-.15h.28Z"/>
			    <path d="M146.65,200.5c.24,1.83.4,3.67.6,5.5s.33,3.67.45,5.5a29.08,29.08,0,0,1,.3,5.5,20.41,20.41,0,0,1-.44,2.75,13.33,13.33,0,0,1-.91,2.75l-.07.15h-.16l-.07-.15a13.33,13.33,0,0,1-.91-2.75A20.41,20.41,0,0,1,145,217a29.08,29.08,0,0,1,.3-5.5q.19-2.75.45-5.5c.2-1.83.36-3.67.6-5.5l0-.15h.26Z"/>
			    <path d="M112.65,119.5c.24,2.25.4,4.5.6,6.75s.33,4.5.45,6.75a43.55,43.55,0,0,1,.3,6.75,25.85,25.85,0,0,1-1.35,6.75l-.06.15h-.19l-.06-.15a25.85,25.85,0,0,1-1.35-6.75,43.55,43.55,0,0,1,.3-6.75q.19-3.37.45-6.75c.2-2.25.36-4.5.6-6.75l0-.15h.27Z"/>
			    <path d="M119.65,158.5c.24,2.08.4,4.17.6,6.25s.33,4.17.45,6.25a37.37,37.37,0,0,1,.3,6.25,22.39,22.39,0,0,1-1.35,6.25l-.06.15h-.18l-.06-.15a22.39,22.39,0,0,1-1.35-6.25,37.37,37.37,0,0,1,.3-6.25q.19-3.12.45-6.25c.2-2.08.36-4.17.6-6.25l0-.15h.27Z"/>
			    <path d="M119.65,204.5c.24,2,.4,4,.6,6s.33,4,.45,6a34.57,34.57,0,0,1,.3,6,24.14,24.14,0,0,1-.44,3,15.48,15.48,0,0,1-.91,3l-.06.15h-.17l-.06-.15a15.48,15.48,0,0,1-.91-3,24.14,24.14,0,0,1-.44-3,34.57,34.57,0,0,1,.3-6q.19-3,.45-6c.2-2,.36-4,.6-6l0-.15h.26Z"/>
			    <path d="M226.65,95.5l.6,19.5.45,19.5c.13,6.5.52,13,.3,19.5s-.52,13-1.35,19.5l0,.15h-.26l0-.15c-.83-6.5-1.15-13-1.35-19.5s.17-13,.3-19.5l.45-19.5.6-19.5v-.15h.29Z"/>
			    <path d="M191.65,78.5c.24,2.08.4,4.17.6,6.25s.33,4.17.45,6.25a37.37,37.37,0,0,1,.3,6.25,22.39,22.39,0,0,1-1.35,6.25l-.06.15h-.18l-.06-.15A22.39,22.39,0,0,1,190,97.25a37.37,37.37,0,0,1,.3-6.25q.19-3.13.45-6.25c.2-2.08.36-4.17.6-6.25l0-.15h.27Z"/>
			</g>
			<g clip-path="url(#clip-path)">
			      <line x1="1.84" y1="59.52" x2="23.23" y2="80.92"/>
			      <polygon points="3.25 58.1 23.23 80.92 0.42 60.93 3.25 58.1"/>
			      <line x1="22.88" y1="80.59" x2="45.88" y2="70.59"/>
			      <polygon points="22.08 78.76 45.88 70.59 23.67 82.43 22.08 78.76"/>
			      <line x1="26.88" y1="21.59" x2="45.88" y2="33.59"/>
			      <polygon points="27.95 19.9 45.88 33.59 25.81 23.28 27.95 19.9"/>
			      <line x1="68.88" y1="10.59" x2="39.88" y2="29.59"/>
			      <polygon points="69.97 12.27 39.88 29.59 67.78 8.92 69.97 12.27"/>
			      <line x1="45.88" y1="70.59" x2="69.88" y2="81.59"/>
			      <polygon points="46.71 68.78 69.88 81.59 45.04 72.41 46.71 68.78"/>
			      <line x1="68.88" y1="10.59" x2="79.88" y2="16.59"/>
			      <polygon points="69.83 8.84 79.88 16.59 67.92 12.35 69.83 8.84"/>
			      <line x1="73.88" y1="22.59" x2="92.88" y2="2.59"/>
			      <polygon points="72.43 21.22 92.88 2.59 75.33 23.97 72.43 21.22"/>
			      <line x1="92.88" y1="2.59" x2="125.88" y2="15.59"/>
			      <polygon points="93.61 0.73 125.88 15.59 92.14 4.46 93.61 0.73"/>
			      <line x1="117.88" y1="11.59" x2="133.88" y2="1.59"/>
			      <polygon points="116.82 9.9 133.88 1.59 118.94 13.29 116.82 9.9"/>
			      <line x1="133.88" y1="1.59" x2="162.88" y2="23.59"/>
			      <polygon points="135.09 0 162.88 23.59 132.67 3.19 135.09 0"/>
			      <line x1="128.88" y1="73.59" x2="165.88" y2="82.59"/>
			      <polygon points="129.35 71.65 165.88 82.59 128.41 75.54 129.35 71.65"/>
			      <line x1="188.88" y1="53.59" x2="165.88" y2="82.59"/>
			      <polygon points="190.44 54.84 165.88 82.59 187.31 52.35 190.44 54.84"/>
			      <line x1="154.88" y1="17.59" x2="193.88" y2="2.59"/>
			      <polygon points="154.16 15.73 193.88 2.59 155.59 19.46 154.16 15.73"/>
			      <line x1="180.88" y1="63.59" x2="206.88" y2="72.59"/>
			      <polygon points="181.53 61.7 206.88 72.59 180.22 65.48 181.53 61.7"/>
			      <line x1="193.88" y1="2.59" x2="224.88" y2="27.59"/>
			      <polygon points="195.13 1.04 224.88 27.59 192.62 4.15 195.13 1.04"/>
			      <line x1="206.58" y1="73.33" x2="216.88" y2="52.59"/>
			      <polygon points="204.79 72.44 216.88 52.59 208.38 74.22 204.79 72.44"/>
			      <line x1="224.88" y1="27.59" x2="228.88" y2="44.59"/>
			      <polygon points="226.82 27.14 228.88 44.59 222.93 28.05 226.82 27.14"/>
			      <line x1="212.88" y1="60.59" x2="228.88" y2="44.59"/>
			      <polygon points="211.46 59.18 228.88 44.59 214.29 62.01 211.46 59.18"/>
			      <line x1="1.88" y1="59.59" x2="8.88" y2="40.59"/>
			      <polygon points="0 58.9 8.88 40.59 3.75 60.28 0 58.9"/>
			      <line x1="26.88" y1="21.59" x2="8.88" y2="40.59"/>
			      <polygon points="28.33 22.97 8.88 40.59 25.43 20.22 28.33 22.97"/>
			      <line x1="68.86" y1="81.59" x2="86.86" y2="70.59"/>
			      <polygon points="67.81 79.89 86.86 70.59 69.9 83.3 67.81 79.89"/>
			      <line x1="108.86" y1="82.59" x2="85.86" y2="68.59"/>
			      <polygon points="107.82 84.3 85.86 68.59 109.9 80.89 107.82 84.3"/>
			      <line x1="138.86" y1="66.59" x2="108.86" y2="83.59"/>
			      <polygon points="139.84 68.33 108.86 83.59 137.87 64.85 139.84 68.33"/>
			</g>
		</g>
	</symbol>

	<!--Storm icon-->
	<symbol id="storm-cloud" viewBox="0 0 228.88 165.66">
		<defs>
			<clipPath id="clip-path" transform="translate(-9.64 -41.91)">
			    <rect y="-40" width="250" height="250" fill="none"/>
			</clipPath>
		</defs>
		<title>Stormy</title>
		<g>
			<g>
			    <polygon points="97 72.89 74.86 104.71 92.72 70.3 97 72.89"/>
			    <polygon points="150.61 80.52 134.13 103.15 148.1 78.89 150.61 80.52"/>
			    <path d="M84.5,146.62a30.78,30.78,0,0,1,3.89.07c1.08.51,2.18,1,3.26,1.47l6.54,2.92,6.54,2.92,3.27,1.46a37.42,37.42,0,0,1,2.66,2.83,37.42,37.42,0,0,1-3.88-.09l-3.27-1.46L97,153.82l-6.54-2.92c-1.09-.48-2.17-1-3.27-1.44A30.79,30.79,0,0,1,84.5,146.62Z" transform="translate(-9.64 -41.91)"/>
			    <polygon points="76.52 163.69 101.01 116.38 79.22 165 76.52 163.69"/>
			    <path d="M143.84,145.32a18.07,18.07,0,0,1,2.17,1.06c.45.58.92,1.14,1.38,1.71l2.77,3.4,2.77,3.4,1.38,1.7a21.94,21.94,0,0,1,.61,2.33,21.94,21.94,0,0,1-2.16-1.07l-1.38-1.7-2.77-3.4-2.77-3.4c-.46-.56-.91-1.14-1.39-1.7A18.07,18.07,0,0,1,143.84,145.32Z" transform="translate(-9.64 -41.91)"/>
			    <polygon points="77.23 162.38 145.26 117.03 79.53 165.66 77.23 162.38"/>
			</g>
			<g clip-path="url(#clip-path)">
			    <line x1="1.84" y1="59.52" x2="23.23" y2="80.92"/>
			    <polygon points="3.25 58.1 23.23 80.92 0.42 60.93 3.25 58.1"/>
			    <line x1="22.88" y1="80.59" x2="45.88" y2="70.59"/>
			    <polygon points="22.08 78.76 45.88 70.59 23.67 82.43 22.08 78.76"/>
			    <line x1="26.88" y1="21.59" x2="45.88" y2="33.59"/>
		     	<polygon points="27.95 19.9 45.88 33.59 25.81 23.28 27.95 19.9"/>
			    <line x1="68.88" y1="10.59" x2="39.88" y2="29.59"/>
			    <polygon points="69.97 12.27 39.88 29.59 67.78 8.92 69.97 12.27"/>
			    <line x1="45.88" y1="70.59" x2="69.88" y2="81.59"/>
			    <polygon points="46.71 68.78 69.88 81.59 45.04 72.41 46.71 68.78"/>
			    <line x1="68.88" y1="10.59" x2="79.88" y2="16.59"/>
			    <polygon points="69.83 8.84 79.88 16.59 67.92 12.35 69.83 8.84"/>
			    <line x1="73.88" y1="22.59" x2="92.88" y2="2.59"/>
			    <polygon points="72.43 21.22 92.88 2.59 75.33 23.97 72.43 21.22"/>
			    <line x1="92.88" y1="2.59" x2="125.88" y2="15.59"/>
			    <polygon points="93.61 0.73 125.88 15.59 92.14 4.46 93.61 0.73"/>
			    <line x1="117.88" y1="11.59" x2="133.88" y2="1.59"/>
			    <polygon points="116.82 9.9 133.88 1.59 118.94 13.29 116.82 9.9"/>
			    <line x1="133.88" y1="1.59" x2="162.88" y2="23.59"/>
			    <polygon points="135.09 0 162.88 23.59 132.67 3.19 135.09 0"/>
			    <line x1="128.88" y1="73.59" x2="165.88" y2="82.59"/>
			    <polygon points="129.35 71.65 165.88 82.59 128.41 75.54 129.35 71.65"/>
			    <line x1="188.88" y1="53.59" x2="165.88" y2="82.59"/>
			    <polygon points="190.44 54.84 165.88 82.59 187.31 52.35 190.44 54.84"/>
			    <line x1="154.88" y1="17.59" x2="193.88" y2="2.59"/>
			    <polygon points="154.16 15.73 193.88 2.59 155.59 19.46 154.16 15.73"/>
			    <line x1="180.88" y1="63.59" x2="206.88" y2="72.59"/>
				<polygon points="181.53 61.7 206.88 72.59 180.22 65.48 181.53 61.7"/>
			    <line x1="193.88" y1="2.59" x2="224.88" y2="27.59"/>
			    <polygon points="195.13 1.04 224.88 27.59 192.62 4.15 195.13 1.04"/>
			    <line x1="206.58" y1="73.33" x2="216.88" y2="52.59"/>
			    <polygon points="204.79 72.44 216.88 52.59 208.38 74.22 204.79 72.44"/>
			    <line x1="224.88" y1="27.59" x2="228.88" y2="44.59"/>
			    <polygon points="226.82 27.14 228.88 44.59 222.93 28.05 226.82 27.14"/>
			    <line x1="212.88" y1="60.59" x2="228.88" y2="44.59"/>
			    <polygon points="211.46 59.18 228.88 44.59 214.29 62.01 211.46 59.18"/>
			    <line x1="1.88" y1="59.59" x2="8.88" y2="40.59"/>
			    <polygon points="0 58.9 8.88 40.59 3.75 60.28 0 58.9"/>
			    <line x1="26.88" y1="21.59" x2="8.88" y2="40.59"/>
			    <polygon points="28.33 22.97 8.88 40.59 25.43 20.22 28.33 22.97"/>
			    <line x1="68.86" y1="81.59" x2="86.86" y2="70.59"/>
			    <polygon points="67.81 79.89 86.86 70.59 69.9 83.3 67.81 79.89"/>
			    <line x1="108.86" y1="82.59" x2="85.86" y2="68.59"/>
			    <polygon points="107.82 84.3 85.86 68.59 109.9 80.89 107.82 84.3"/>
			    <line x1="138.86" y1="66.59" x2="108.86" y2="83.59"/>
			    <polygon points="139.84 68.33 108.86 83.59 137.87 64.85 139.84 68.33"/>
			</g>
		</g>
	</symbol>

	<!--Snow icon-->
	<symbol id="snow" viewBox="0 0 228.88 202.63">
		<defs>
		    <clipPath id="clip-path" transform="translate(-9.64 -11.91)">
		        <rect y="-70" width="250" height="250" fill="none"/>
			</clipPath>
		</defs>
		<title>Snowy</title>
		<g>
			<g clip-path="url(#clip-path)">
			    <line x1="1.84" y1="59.52" x2="23.23" y2="80.92"/>
			    <polygon points="3.25 58.1 23.23 80.92 0.42 60.93 3.25 58.1"/>
			    <line x1="22.88" y1="80.59" x2="45.88" y2="70.59"/>
			    <polygon points="22.08 78.76 45.88 70.59 23.67 82.43 22.08 78.76"/>
			    <line x1="26.88" y1="21.59" x2="45.88" y2="33.59"/>
			    <polygon points="27.95 19.9 45.88 33.59 25.81 23.28 27.95 19.9"/>
			    <line x1="68.88" y1="10.59" x2="39.88" y2="29.59"/>
			    <polygon points="69.97 12.27 39.88 29.59 67.78 8.92 69.97 12.27"/>
			    <line x1="45.88" y1="70.59" x2="69.88" y2="81.59"/>
			    <polygon points="46.71 68.78 69.88 81.59 45.04 72.41 46.71 68.78"/>
			    <line x1="68.88" y1="10.59" x2="79.88" y2="16.59"/>
			    <polygon points="69.83 8.84 79.88 16.59 67.92 12.35 69.83 8.84"/>
			    <line x1="73.88" y1="22.59" x2="92.88" y2="2.59"/>
			    <polygon points="72.43 21.22 92.88 2.59 75.33 23.97 72.43 21.22"/>
			    <line x1="92.88" y1="2.59" x2="125.88" y2="15.59"/>
			    <polygon points="93.61 0.73 125.88 15.59 92.14 4.46 93.61 0.73"/>
			    <line x1="117.88" y1="11.59" x2="133.88" y2="1.59"/>
			    <polygon points="116.82 9.9 133.88 1.59 118.94 13.29 116.82 9.9"/>
			    <line x1="133.88" y1="1.59" x2="162.88" y2="23.59"/>
			    <polygon points="135.09 0 162.88 23.59 132.67 3.19 135.09 0"/>
			    <line x1="128.88" y1="73.59" x2="165.88" y2="82.59"/>
			    <polygon points="129.35 71.65 165.88 82.59 128.41 75.54 129.35 71.65"/>
			    <line x1="188.88" y1="53.59" x2="165.88" y2="82.59"/>
			    <polygon points="190.44 54.84 165.88 82.59 187.31 52.35 190.44 54.84"/>
			    <line x1="154.88" y1="17.59" x2="193.88" y2="2.59"/>
			    <polygon points="154.16 15.73 193.88 2.59 155.59 19.46 154.16 15.73"/>
			    <line x1="180.88" y1="63.59" x2="206.88" y2="72.59"/>
		 	  	<polygon points="181.53 61.7 206.88 72.59 180.22 65.48 181.53 61.7"/>
			    <line x1="193.88" y1="2.59" x2="224.88" y2="27.59"/>
			    <polygon points="195.13 1.04 224.88 27.59 192.62 4.15 195.13 1.04"/>
			    <line x1="206.58" y1="73.33" x2="216.88" y2="52.59"/>
			    <polygon points="204.79 72.44 216.88 52.59 208.38 74.22 204.79 72.44"/>
			    <line x1="224.88" y1="27.59" x2="228.88" y2="44.59"/>
			    <polygon points="226.82 27.14 228.88 44.59 222.93 28.05 226.82 27.14"/>
			    <line x1="212.88" y1="60.59" x2="228.88" y2="44.59"/>
			    <polygon points="211.46 59.18 228.88 44.59 214.29 62.01 211.46 59.18"/>
			    <line x1="1.88" y1="59.59" x2="8.88" y2="40.59"/>
			    <polygon points="0 58.9 8.88 40.59 3.75 60.28 0 58.9"/>
			    <line x1="26.88" y1="21.59" x2="8.88" y2="40.59"/>
			    <polygon points="28.33 22.97 8.88 40.59 25.43 20.22 28.33 22.97"/>
			    <line x1="68.86" y1="81.59" x2="86.86" y2="70.59"/>
			    <polygon points="67.81 79.89 86.86 70.59 69.9 83.3 67.81 79.89"/>
			    <line x1="108.86" y1="82.59" x2="85.86" y2="68.59"/>
			    <polygon points="107.82 84.3 85.86 68.59 109.9 80.89 107.82 84.3"/>
			    <line x1="138.86" y1="66.59" x2="108.86" y2="83.59"/>
			    <polygon points="139.84 68.33 108.86 83.59 137.87 64.85 139.84 68.33"/>
			</g>
			<g>
			    <path d="M78.65,143a70.79,70.79,0,0,1-5.45,4.58l-.93.7-.62-.83-3.87-5.16-.47-.63.57-.42,5.74-4.3.3-.22.2.27c1.35,1.79,2.61,3.53,3.87,5.16Zm-1.34-1.58c-1.28-1.39-2.54-2.71-3.74-4l.5,0-5.23,4.91.09-1.06L73.34,146l-1.56-.14a39.16,39.16,0,0,1,4.7-3.89Z" transform="translate(-9.64 -11.91)"/>
			    <path d="M142.59,115.29a70.79,70.79,0,0,1-5.45,4.58l-.93.7-.62-.83-3.87-5.16-.47-.63.57-.42,5.74-4.3.3-.22.2.27c1.35,1.79,2.61,3.53,3.87,5.16Zm-1.34-1.58c-1.28-1.39-2.54-2.71-3.74-4l.5,0-5.23,4.91.09-1.06,4.41,4.71-1.56-.14a39.16,39.16,0,0,1,4.7-3.89Z" transform="translate(-9.64 -11.91)"/>
			    <path d="M57.36,160.48a70.79,70.79,0,0,1-5.45,4.58l-.93.7-.62-.83-3.87-5.16-.47-.63.57-.42,5.74-4.3.3-.22.2.27c1.35,1.79,2.61,3.53,3.87,5.16ZM56,158.9c-1.28-1.39-2.54-2.71-3.74-4l.5,0-5.23,4.91.09-1.06L52,163.51l-1.56-.14a39.16,39.16,0,0,1,4.7-3.89Z" transform="translate(-9.64 -11.91)"/>
			    <path d="M225.32,201.75a70.79,70.79,0,0,1-5.45,4.58l-.93.7-.62-.83L214.45,201l-.47-.63.57-.42,5.74-4.3.3-.22.2.27c1.35,1.79,2.61,3.53,3.87,5.16ZM224,200.16c-1.28-1.39-2.54-2.71-3.74-4l.5,0-5.23,4.91.09-1.06,4.41,4.71-1.56-.14a39.16,39.16,0,0,1,4.7-3.89Z" transform="translate(-9.64 -11.91)"/>
			    <path d="M214,173.77a70.79,70.79,0,0,1-5.45,4.58l-.93.7-.62-.83-3.87-5.16-.47-.63.57-.42,5.74-4.3.3-.22.2.27c1.35,1.79,2.61,3.53,3.87,5.16Zm-1.34-1.58c-1.28-1.39-2.54-2.71-3.74-4l.5,0-5.23,4.91.09-1.06,4.41,4.71-1.56-.14a39.16,39.16,0,0,1,4.7-3.89Z" transform="translate(-9.64 -11.91)"/>
			    <path d="M129.07,209.25a70.79,70.79,0,0,1-5.45,4.58l-.93.7-.63-.83-3.87-5.16-.47-.63.57-.42,5.74-4.3.3-.22.2.27c1.35,1.79,2.61,3.53,3.87,5.16Zm-1.34-1.58c-1.28-1.39-2.54-2.71-3.74-4l.5,0-5.23,4.91.09-1.06,4.41,4.71-1.56-.14a39.16,39.16,0,0,1,4.7-3.89Z" transform="translate(-9.64 -11.91)"/>
			    <path d="M75.41,204.47A70.79,70.79,0,0,1,70,209.06l-.93.7-.62-.83-3.87-5.16-.47-.63.57-.42,5.74-4.3.3-.22.2.27c1.35,1.79,2.61,3.53,3.87,5.16Zm-1.34-1.58c-1.28-1.39-2.54-2.71-3.74-4l.5,0-5.23,4.91.09-1.06,4.41,4.71-1.56-.14a39.16,39.16,0,0,1,4.7-3.89Z" transform="translate(-9.64 -11.91)"/>
			    <path d="M179.11,201.62a70.79,70.79,0,0,1-5.45,4.58l-.93.7-.62-.83-3.87-5.16-.47-.63.57-.42,5.74-4.3.3-.22.2.27c1.35,1.79,2.61,3.53,3.87,5.16ZM177.77,200c-1.28-1.39-2.54-2.71-3.74-4l.5,0L169.3,201l.09-1.06,4.41,4.71-1.56-.14a39.16,39.16,0,0,1,4.7-3.89Z" transform="translate(-9.64 -11.91)"/>
			    <path d="M221.74,123.8a70.79,70.79,0,0,1-5.45,4.58l-.93.7-.62-.83-3.87-5.16-.47-.63L211,122l5.74-4.3.3-.22.2.27c1.35,1.79,2.61,3.53,3.87,5.16Zm-1.34-1.58c-1.28-1.39-2.54-2.71-3.74-4l.5,0-5.23,4.91.09-1.06,4.41,4.71-1.56-.14a39.16,39.16,0,0,1,4.7-3.89Z" transform="translate(-9.64 -11.91)"/>
			    <path d="M217.92,98.79a70.79,70.79,0,0,1-5.45,4.58l-.93.7-.62-.83L207,98.07l-.47-.63.57-.42,5.74-4.3.3-.22.2.27c1.35,1.79,2.61,3.53,3.87,5.16Zm-1.34-1.58c-1.28-1.39-2.54-2.71-3.74-4l.5,0-5.23,4.91.09-1.06,4.41,4.71-1.56-.14a39.16,39.16,0,0,1,4.7-3.89Z" transform="translate(-9.64 -11.91)"/>
			    <path d="M169.62,138.26a70.79,70.79,0,0,1-5.45,4.58l-.93.7-.62-.83-3.87-5.16-.47-.63.57-.42,5.74-4.3.3-.22.2.27c1.35,1.79,2.61,3.53,3.87,5.16Zm-1.34-1.58c-1.28-1.39-2.54-2.71-3.74-4l.5,0-5.23,4.91.09-1.06,4.41,4.71-1.56-.14a39.16,39.16,0,0,1,4.7-3.89Z" transform="translate(-9.64 -11.91)"/>
			    <path d="M201.57,149.21a70.8,70.8,0,0,1-5.45,4.58l-.93.7-.62-.83-3.87-5.16-.47-.63.57-.42,5.74-4.3.3-.22.2.27c1.35,1.79,2.61,3.53,3.87,5.16Zm-1.34-1.58c-1.28-1.39-2.54-2.71-3.74-4l.5,0-5.23,4.91.09-1.06,4.41,4.71-1.56-.14a39.16,39.16,0,0,1,4.7-3.89Z" transform="translate(-9.64 -11.91)"/>
			    <path d="M85.54,109.85a70.79,70.79,0,0,1-5.45,4.58l-.93.7-.62-.83-3.87-5.16-.47-.63.57-.42,5.74-4.3.3-.22.2.27c1.35,1.79,2.61,3.53,3.87,5.16Zm-1.34-1.58c-1.28-1.39-2.54-2.71-3.74-4l.5,0-5.23,4.91.09-1.06,4.41,4.71-1.56-.14a39.16,39.16,0,0,1,4.7-3.89Z" transform="translate(-9.64 -11.91)"/>
			    <path d="M175.47,108.55a70.79,70.79,0,0,1-5.45,4.58l-.93.7-.62-.83-3.87-5.16-.47-.63.57-.42,5.74-4.3.3-.22.2.27c1.35,1.79,2.61,3.53,3.87,5.16ZM174.13,107c-1.28-1.39-2.54-2.71-3.74-4l.5,0-5.23,4.91.09-1.06,4.41,4.71-1.56-.14a39.16,39.16,0,0,1,4.7-3.89Z" transform="translate(-9.64 -11.91)"/>
			    <path d="M142.32,169.08a70.79,70.79,0,0,1-5.45,4.58l-.93.7-.62-.83-3.87-5.16-.47-.63.57-.42,5.74-4.3.3-.22.2.27c1.35,1.79,2.61,3.53,3.87,5.16ZM141,167.5c-1.28-1.39-2.54-2.71-3.74-4l.5,0-5.23,4.91.09-1.06L137,172.1l-1.56-.14a39.16,39.16,0,0,1,4.7-3.89Z" transform="translate(-9.64 -11.91)"/>
			    <path d="M112,127.8a70.79,70.79,0,0,1-5.45,4.58l-.93.7-.62-.83-3.87-5.16-.47-.63.57-.42,5.74-4.3.3-.22.2.27c1.35,1.79,2.61,3.53,3.87,5.16Zm-1.34-1.58c-1.28-1.39-2.54-2.71-3.74-4l.5,0-5.23,4.91.09-1.06,4.41,4.71-1.56-.14a39.16,39.16,0,0,1,4.7-3.89Z" transform="translate(-9.64 -11.91)"/>
			    <path d="M105.42,171a70.79,70.79,0,0,1-5.45,4.58l-.93.7-.62-.83-3.87-5.16-.47-.63.57-.42,5.74-4.3.3-.22.2.27c1.35,1.79,2.61,3.53,3.87,5.16Zm-1.34-1.58c-1.28-1.39-2.54-2.71-3.74-4l.5,0-5.23,4.91.09-1.06L100.1,174l-1.56-.14a39.16,39.16,0,0,1,4.7-3.89Z" transform="translate(-9.64 -11.91)"/>
			    <path d="M54.54,108.85a70.79,70.79,0,0,1-5.45,4.58l-.93.7-.62-.83-3.87-5.16-.47-.63.57-.42,5.74-4.3.3-.22.2.27c1.35,1.79,2.61,3.53,3.87,5.16Zm-1.34-1.58c-1.28-1.39-2.54-2.71-3.74-4l.5,0-5.23,4.91.09-1.06,4.41,4.71-1.56-.14a39.16,39.16,0,0,1,4.7-3.89Z" transform="translate(-9.64 -11.91)"/>
			    <path d="M47.74,194.8a70.79,70.79,0,0,1-5.45,4.58l-.93.7-.62-.83-3.87-5.16-.47-.63L37,193l5.74-4.3.3-.22.2.27c1.35,1.79,2.61,3.53,3.87,5.16Zm-1.34-1.58c-1.28-1.39-2.54-2.71-3.74-4l.5,0-5.23,4.91.09-1.06,4.41,4.71-1.56-.14a39.16,39.16,0,0,1,4.7-3.89Z" transform="translate(-9.64 -11.91)"/>
				<path d="M34.62,133.26a70.79,70.79,0,0,1-5.45,4.58l-.93.7-.63-.83-3.87-5.16-.47-.63.57-.42,5.74-4.3.3-.22.2.27c1.35,1.79,2.61,3.53,3.87,5.16Zm-1.34-1.58c-1.28-1.39-2.54-2.71-3.74-4l.5,0-5.23,4.91.09-1.06,4.41,4.71-1.56-.14a39.16,39.16,0,0,1,4.7-3.89Z" transform="translate(-9.64 -11.91)"/>
			</g>
		</g>
	</symbol>

	<!--Hurricane icon-->
	<symbol id="hurricane" viewBox="0 0 207 216.51">
		<title>Hurricane</title>
		<g>
			<polygon points="38.35 21.51 93.91 19.19 93.88 19.32 101.5 19.32 101.42 18.88 102 18.86 101.41 18.83 97.69 0.06 94.04 18.52 41.04 16.32 37.81 0 34 19.26 38.35 19.26 38.35 21.51"/>
		   	<path d="M95.33,106,93,121.42h4.55v3.09l58-3.17,0,.18h8l-.09-.61.61,0-.62,0-2.47-16.42,3.57-.08-.06.18H182.8l-.21-.61,1.41,0-1.43,0-6-17.34,6.49-.17-.06.18h16.92l-.19-.61,1.3,0-1.32,0-8.25-25.75-8.11,25.33-7.23-.19-2.48-7.14-2.44,7L65.63,82.39l-1.76-5.51,95.75-2.55-.05.18h16.36l-.19-.61,1.26,0-1.28,0-8-25.75-7.84,25.33-98-2.61L58.46,60l-3.4,10.62-8.95-.24-5.25-17h5.42v3.09l80.06-3.17,0,.18h11l-.13-.61.84,0-.86,0-5.35-25.75-5.26,25.33-76.38-3L45.49,27,40.35,51.76,39.18,48,31,74.42h9.35v3.09L53,77.17l-3,9.25h9.67v3.09l111-2.86-5.83,16.76-4.06-.1-1.24-8.23-1.23,8.17L98,101.83,97,95l-1,6.78-59-1.4L29.19,78,20,104.42H30.5v3.09Zm62.76-1.49-2.4,15.93-55.34-3-1.73-11.49Z" transform="translate(-20 -19)"/>
			<path d="M226.34,209.33l-4.15-22.26L218.1,209l-7.6-.34-1-10.56-1,10.47-33.31-1.47-.89-9.07-.88,9-14.49-.64L157.13,197,208,194.76l0,.15h8.52l-.1-.52.65,0-.66,0-4.15-22.26L208.1,194l-52-2.3-.87-4.67-.86,4.6-5.53-.24L146.94,181l33-1.69,0,.18h8.52l-.1-.61.65,0-.66,0-1.68-10.42,2.42-.08,0,.18h13.11l-.15-.61,1,0-1,0-6.39-25.75-6.29,25.33-2.82-.09-2.29-14.23-2.27,14.08-62.71-2.08L117.26,153l-1.93,12-17.22-.57-4-16.08,25.31-1L118,156.84h3.91v2.67l49.83-2.74,0,.15h6.84l-.08-.52.52,0-.53,0-1.62-10.83h2.44l-.12-.61.83,0-.85,0-2-9.87,28.81-.63-.07.18H225.7l-.23-.61,1.52,0-1.55,0-9.67-25.75-9.51,25.33-29.61-.65-2.81-13.68-2.79,13.55-80.19-1.76L88.44,119,86,130.77l-17.69-.39L59.92,108,50,134.42H61.34v3.09l23.4-.51L83,145.42h6.21v3.09l1.75-.07-5,20h7.49v3.09l20.89-.69L113,179.42h4.87v3.09l25.68-1.31L141,194.84h4.87v2.67l7.49-.33L151,209.84h4.87v2.67l17-.75-.89,9.09h2.56v2.67l8.88-.75L183,232.84h1.15v2.67l14.7-2.74v.15h2l0-.52.15,0-.16,0-.49-11,6.88-.58v.15h4.48l-.05-.52.34,0-.35,0-1-10.25,7.31-.32,0,.15h8.52l-.1-.52.65,0Zm-52.91-63.83L171.86,156l-47.54-2.62-.93-6.21,45.07-1.81,0,.18Zm-2.87-10.4-1.91,9.31-45.94-1.84-1-6.39ZM93,141.39l-.94-4.56,29-.64-.94,6.28ZM145.26,172l-.86,4.59-23.54-1.2-.77-4.76,61.59-2-1.59,9.84-34-1.74Zm38.4,46-7.52-.63-.56-5.72,8.37-.37Zm15.24,14-14-2.62-.3-6.69,14.79-1.24Zm.56-12.66L184.36,218l-.3-6.78,15.77-.7Zm7.87.66-7-.59-.39-8.82,8.4-.37Z" transform="translate(-20 -19)"/>
		</g>
	</symbol>

<!--Nighttime icon-->
<symbol id="nighttime" viewBox="0 0 33 32">
<title>Nighttime</title>
<path  d="M19.086 0.963c-2.678-0.882-5.42-0.963-7.984-0.392 2.335-0.441 4.816-0.327 7.233 0.473 7.625 2.514 11.755 10.71 9.257 18.318s-10.71 11.755-18.318 9.241c-4.245-1.404-7.412-4.571-8.947-8.424 1.502 4.196 4.849 7.69 9.42 9.175 7.853 2.58 16.294-1.682 18.873-9.535 2.58-7.837-1.698-16.278-9.535-18.857z"></path>
<path  d="M15.641 0.245c5.665 3.673 7.657 11.363 4.359 17.829-3.265 6.433-10.596 9.371-16.882 7.020 0.882 0.392 1.812 0.702 2.792 0.914 7.527 1.616 14.922-3.167 16.539-10.694 1.322-6.106-1.616-12.163-6.808-15.069z"></path>
<path  d="M16.204 8.026l1.836 1.836-1.836 1.836-1.836-1.836 1.836-1.836z"></path>
<path  d="M16.196 11.592l-0.327-1.567-1.502-0.261 1.535-0.294 0.294-1.551 0.278 1.567 1.551 0.278-1.551 0.294z"></path>
<path  d="M12.523 0.307l1.836 1.836-1.836 1.836-1.836-1.836 1.836-1.836z"></path>
<path  d="M12.539 3.869l-0.327-1.567-1.518-0.261 1.535-0.294 0.31-1.535 0.278 1.551 1.551 0.278-1.551 0.294z"></path>
<path  d="M7.534 5.32l1.836 1.836-1.836 1.836-1.836-1.836 1.836-1.836z"></path>
<path  d="M7.543 8.882l-0.327-1.551-1.502-0.278 1.535-0.278 0.294-1.551 0.278 1.567 1.551 0.261-1.551 0.31z"></path>
<path  d="M30.662 28.341l1.836 1.836-1.836 1.836-1.836-1.836 1.836-1.836z"></path>
<path  d="M30.661 31.902l-0.31-1.567-1.518-0.261 1.535-0.294 0.294-1.535 0.294 1.551 1.551 0.278-1.551 0.294z"></path>
<path  d="M12.066 15.546l1.836 1.836-1.836 1.836-1.836-1.836 1.836-1.836z"></path>
<path  d="M12.065 19.102l-0.327-1.567-1.502-0.261 1.535-0.278 0.294-1.551 0.278 1.567 1.551 0.261-1.551 0.31z"></path>
<path  d="M10.702 10.845l1.328 1.328-1.328 1.328-1.328-1.328 1.328-1.328z"></path>
<path  d="M10.694 13.42l-0.229-1.127-1.094-0.196 1.11-0.196 0.212-1.127 0.212 1.127 1.127 0.196-1.127 0.229z"></path>
<path  d="M18.244 14.382l1.328 1.328-1.328 1.328-1.328-1.328 1.328-1.328z"></path>
<path  d="M18.253 16.963l-0.245-1.127-1.078-0.196 1.11-0.212 0.212-1.11 0.196 1.127 1.127 0.196-1.127 0.212z"></path>
<path  d="M9.382 21.461l1.328 1.328-1.328 1.328-1.328-1.328 1.328-1.328z"></path>
<path  d="M9.371 24.049l-0.229-1.143-1.094-0.196 1.11-0.196 0.212-1.127 0.212 1.143 1.11 0.18-1.11 0.229z"></path>
<path  d="M28.838 24.444l1.328 1.328-1.328 1.328-1.328-1.328 1.328-1.328z"></path>
<path  d="M28.833 27.020l-0.229-1.127-1.094-0.196 1.11-0.212 0.212-1.11 0.212 1.127 1.127 0.196-1.127 0.212z"></path>
<path  d="M4.993 17.531l1.616 1.616-1.616 1.616-1.616-1.616 1.616-1.616z"></path>
<path  d="M4.996 20.669l-0.278-1.371-1.339-0.245 1.355-0.245 0.261-1.371 0.245 1.388 1.371 0.229-1.371 0.278z"></path>
</symbol>
</svg>
